<svg xmlns="http://www.w3.org/2000/svg" xmlns:xlink="http://www.w3.org/1999/xlink" viewBox="0 0 376.92 310.74"><defs><style>.cls-1{fill:none;}.cls-2{isolation:isolate;}.cls-17,.cls-3{fill:#bbb8f6;}.cls-14,.cls-3,.cls-9{opacity:0.5;}.cls-14,.cls-20,.cls-3{mix-blend-mode:multiply;}.cls-4{fill:#9796f7;}.cls-5{fill:#d9dff6;}.cls-6{fill:#b4b9f6;}.cls-7{fill:#f7f7f7;}.cls-8{opacity:0.47;}.cls-10{fill:#fff;}.cls-11{fill:#fffaff;}.cls-12{clip-path:url(#clip-path);}.cls-13{fill:#d1d3ff;}.cls-14{fill:#9997e9;}.cls-15{fill:#8184eb;}.cls-16{fill:#d9dff7;}.cls-18{fill:#6782ea;opacity:0.41;mix-blend-mode:screen;}.cls-19{fill:#9391ea;}.cls-20{fill:#6642cc;opacity:0.3;}.cls-21{fill:#130159;}.cls-22{fill:#5601f3;}.cls-23{fill:#f4c5a2;}.cls-24{fill:#00cdc4;}.cls-25{fill:#681ef7;}.cls-26{fill:#fed4bd;}.cls-27{fill:#3d00bd;}.cls-28{fill:#01e4d0;}.cls-29{fill:#8285df;}.cls-30{fill:#b3b8f6;}.cls-31{fill:#f6bf03;}.cls-32{fill:#f6dd03;}.cls-33{fill:#7676e5;}.cls-34{fill:#f70083;}.cls-35{fill:#827fde;}.cls-36{fill:#dfe3ff;}.cls-37{fill:#f1539a;}.cls-38{fill:#603eff;}</style><clipPath id="clip-path"><path class="cls-1" d="M290.54,97.12,309.27,108a1,1,0,0,0,1.51-.88V90.53a1,1,0,0,0-.5-.87L291.54,78.83a1,1,0,0,0-1.51.87V96.25A1,1,0,0,0,290.54,97.12Z"/></clipPath></defs><g class="cls-2"><g id="Layer_2" data-name="Layer 2"><g id="OBJECTS"><path class="cls-3" d="M180.12,145.52a6.19,6.19,0,0,1,5.65,0l106,61.69c1.55.9,1.54,2.36,0,3.27l-47.18,27.35a6.17,6.17,0,0,1-5.64,0l-106-61.69c-1.56-.9-1.55-2.36,0-3.27Z"/><path class="cls-4" d="M292.19,205,289,203v.7L184.5,143a6.06,6.06,0,0,0-5.5,0l-44.61,25.85v-.38l-3.16,1.79v1.37h0a1.94,1.94,0,0,0,1.12,1.57l106.56,61.93a6,6,0,0,0,5.51,0l46.61-27a1.81,1.81,0,0,0,1.11-1.9C292.16,205.87,292.19,205,292.19,205Z"/><path class="cls-5" d="M179,141.59a6.06,6.06,0,0,1,5.5,0l106.57,61.93c1.51.88,1.5,2.3,0,3.19l-46.61,27a6.08,6.08,0,0,1-5.51,0L132.36,171.79c-1.51-.88-1.5-2.31,0-3.19Z"/><path class="cls-6" d="M178.88,145.76a1.55,1.55,0,0,1,1.42,0l4.89,2.83c.39.23.38.6,0,.83l-3.76,2.17a1.57,1.57,0,0,1-1.43,0l-4.88-2.84c-.39-.22-.38-.59,0-.82Zm3.09,6.15c-.4.23-.4.6,0,.82l4.88,2.84a1.57,1.57,0,0,0,1.43,0L192,153.4c.39-.23.4-.6,0-.83l-4.89-2.83a1.55,1.55,0,0,0-1.42,0Zm7,4.06c-.39.23-.39.6,0,.82l4.89,2.84a1.57,1.57,0,0,0,1.43,0l3.76-2.17a.44.44,0,0,0,0-.83l-4.88-2.83a1.55,1.55,0,0,0-1.42,0Zm7.07,4.1c-.4.23-.41.6,0,.83l4.88,2.84a1.6,1.6,0,0,0,1.43,0l3.76-2.17c.39-.23.4-.59,0-.82l-4.88-2.84a1.55,1.55,0,0,0-1.42,0Zm7,4.06c-.39.23-.4.6,0,.83l4.88,2.83a1.59,1.59,0,0,0,1.44,0l3.76-2.17a.43.43,0,0,0,0-.82L208.19,162a1.55,1.55,0,0,0-1.42,0Zm7,4.07c-.4.23-.41.59,0,.82l4.88,2.84a1.57,1.57,0,0,0,1.43,0l3.76-2.18a.43.43,0,0,0,0-.82L215.18,166a1.61,1.61,0,0,0-1.42,0Zm7,4.06a.43.43,0,0,0,0,.82l4.88,2.84a1.57,1.57,0,0,0,1.43,0l3.76-2.17a.44.44,0,0,0,0-.83l-4.88-2.83a1.58,1.58,0,0,0-1.42,0Zm7,4.06a.44.44,0,0,0,0,.83l4.88,2.83a1.57,1.57,0,0,0,1.43,0l3.76-2.17a.43.43,0,0,0,0-.82l-4.88-2.84a1.55,1.55,0,0,0-1.42,0Zm7,4.06c-.4.23-.41.6,0,.83l4.88,2.84a1.6,1.6,0,0,0,1.43,0l3.76-2.17c.39-.23.4-.59,0-.82l-4.88-2.84a1.55,1.55,0,0,0-1.42,0Zm7,4.07c-.39.23-.4.6,0,.83l4.88,2.84a1.57,1.57,0,0,0,1.43,0l3.76-2.18a.43.43,0,0,0,0-.82l-4.88-2.84a1.61,1.61,0,0,0-1.42,0Zm7,4.07a.43.43,0,0,0,0,.82l4.88,2.84a1.6,1.6,0,0,0,1.43,0L255,190a.43.43,0,0,0,0-.82l-4.88-2.84a1.61,1.61,0,0,0-1.42,0Zm7,4.06c-.4.23-.41.6,0,.83l4.88,2.83a1.57,1.57,0,0,0,1.43,0l3.76-2.17c.39-.23.4-.6,0-.82l-4.88-2.84a1.55,1.55,0,0,0-1.42,0Zm7,4.06c-.39.23-.4.6,0,.83l4.88,2.83a1.59,1.59,0,0,0,1.44,0l3.76-2.17a.44.44,0,0,0,0-.83l-4.88-2.83a1.55,1.55,0,0,0-1.42,0Zm7,4.07c-.4.22-.41.59,0,.82l4.88,2.84a1.6,1.6,0,0,0,1.43,0l3.76-2.18a.43.43,0,0,0,0-.82l-4.88-2.84a1.58,1.58,0,0,0-1.42,0Zm7,4c-.39.23-.4.61,0,.83l4.88,2.84a1.57,1.57,0,0,0,1.43,0l3.76-2.18a.43.43,0,0,0,0-.82l-4.88-2.83a1.58,1.58,0,0,0-1.42,0Zm-103.57-53.5c-.39.23-.4.59,0,.82l16.46,9.57a1.55,1.55,0,0,0,1.42,0l3.77-2.17a.43.43,0,0,0,0-.82l-16.46-9.57a1.55,1.55,0,0,0-1.42,0ZM188,162.07a.44.44,0,0,0,0,.83l4.88,2.84a1.6,1.6,0,0,0,1.43,0l3.76-2.18a.43.43,0,0,0,0-.82l-4.88-2.84a1.58,1.58,0,0,0-1.42,0Zm7,4.07c-.39.23-.4.59,0,.82l4.88,2.84a1.57,1.57,0,0,0,1.43,0l3.76-2.17a.44.44,0,0,0,0-.83L200.14,164a1.61,1.61,0,0,0-1.42,0Zm7,4.06c-.4.23-.4.6,0,.82l4.88,2.84a1.57,1.57,0,0,0,1.43,0l3.76-2.17c.39-.23.4-.6,0-.82L207.13,168a1.55,1.55,0,0,0-1.42,0Zm7,4.06a.43.43,0,0,0,0,.82l4.88,2.84a1.57,1.57,0,0,0,1.43,0l3.76-2.17a.43.43,0,0,0,0-.82l-4.88-2.84a1.55,1.55,0,0,0-1.42,0Zm7,4.07a.43.43,0,0,0,0,.82L220.8,182a1.63,1.63,0,0,0,1.43,0l3.76-2.18c.39-.23.4-.59,0-.82l-4.88-2.84a1.55,1.55,0,0,0-1.42,0Zm7,4.06a.43.43,0,0,0,0,.82l4.88,2.84a1.6,1.6,0,0,0,1.43,0l3.76-2.17a.44.44,0,0,0,0-.83l-4.88-2.83a1.55,1.55,0,0,0-1.42,0Zm7,4.07a.43.43,0,0,0,0,.82l4.88,2.84a1.57,1.57,0,0,0,1.43,0L240,188c.4-.23.39-.6,0-.83l-4.88-2.83a1.55,1.55,0,0,0-1.42,0Zm7,4.06c-.39.23-.4.6,0,.82l4.88,2.84a1.55,1.55,0,0,0,1.42,0L247,192c.4-.23.4-.6,0-.82l-4.88-2.84a1.55,1.55,0,0,0-1.42,0Zm7,4.06a.44.44,0,0,0,0,.83l4.89,2.84a1.58,1.58,0,0,0,1.42,0l3.76-2.18a.43.43,0,0,0,0-.82l-4.88-2.84a1.58,1.58,0,0,0-1.42,0Zm7,4.07a.43.43,0,0,0,0,.82l4.88,2.84a1.6,1.6,0,0,0,1.43,0l3.76-2.17a.44.44,0,0,0,0-.83l-4.88-2.84a1.55,1.55,0,0,0-1.42,0Zm7,4.06c-.4.23-.4.6,0,.82l4.89,2.84a1.55,1.55,0,0,0,1.42,0L268,204.2c.39-.23.4-.6,0-.82l-4.88-2.84a1.55,1.55,0,0,0-1.42,0Zm7,4.06a.43.43,0,0,0,0,.82l4.88,2.84a1.57,1.57,0,0,0,1.43,0l3.76-2.17a.44.44,0,0,0,0-.83l-4.88-2.83a1.55,1.55,0,0,0-1.42,0ZM163.54,154.61c-.39.23-.4.6,0,.83l5.27,3.06a1.55,1.55,0,0,0,1.42,0l3.77-2.17a.43.43,0,0,0,0-.82l-5.28-3.07a1.55,1.55,0,0,0-1.42,0Zm7.27,4.23a.44.44,0,0,0,0,.83l5.28,3.06a1.55,1.55,0,0,0,1.42,0l3.76-2.17c.4-.23.4-.59,0-.82L176,156.67a1.55,1.55,0,0,0-1.42,0ZM152,161.27a.43.43,0,0,0,0,.82l3.7,2.15a1.55,1.55,0,0,0,1.42,0l9.49-5.48a.44.44,0,0,0,0-.83l-3.7-2.15a1.58,1.58,0,0,0-1.42,0Zm11.55.07a.43.43,0,0,0,0,.82l5.28,3.07a1.61,1.61,0,0,0,1.42,0l3.77-2.17a.44.44,0,0,0,0-.83l-5.28-3.07a1.58,1.58,0,0,0-1.42,0Zm22,6a.43.43,0,0,0,0,.82l4.88,2.84a1.58,1.58,0,0,0,1.42,0l3.77-2.18a.43.43,0,0,0,0-.82l-4.89-2.84a1.58,1.58,0,0,0-1.42,0Zm-12.83-.78a.44.44,0,0,0,0,.83l9.66,5.61a1.57,1.57,0,0,0,1.43,0l3.76-2.17c.39-.23.4-.6,0-.83l-4.07-2.36,5-2.92c.39-.23.4-.6,0-.82l-4.88-2.84a1.57,1.57,0,0,0-1.43,0l-5.77,3.33-1.38.79Zm19.81,4.84a.43.43,0,0,0,0,.82l4.88,2.84a1.61,1.61,0,0,0,1.42,0l3.77-2.17a.44.44,0,0,0,0-.83l-4.89-2.84a1.57,1.57,0,0,0-1.43,0Zm7,4.06c-.4.23-.4.6,0,.82l4.88,2.84a1.57,1.57,0,0,0,1.43,0l3.76-2.17a.44.44,0,0,0,0-.83l-4.89-2.83a1.55,1.55,0,0,0-1.42,0Zm7,4.06a.44.44,0,0,0,0,.83l4.88,2.83a1.55,1.55,0,0,0,1.42,0l3.77-2.17c.39-.23.4-.6,0-.83l-4.89-2.83a1.57,1.57,0,0,0-1.43,0Zm7,4.07a.43.43,0,0,0,0,.82l4.89,2.84a1.61,1.61,0,0,0,1.42,0l3.76-2.17a.44.44,0,0,0,0-.83l-4.89-2.84a1.55,1.55,0,0,0-1.42,0Zm7,4.06a.43.43,0,0,0,0,.82l4.88,2.84a1.58,1.58,0,0,0,1.42,0l3.77-2.18a.43.43,0,0,0,0-.82l-4.89-2.84a1.58,1.58,0,0,0-1.42,0Zm7,4.07a.43.43,0,0,0,0,.82l4.88,2.84a1.55,1.55,0,0,0,1.42,0l3.77-2.17c.39-.23.4-.6,0-.83l-4.89-2.83a1.57,1.57,0,0,0-1.43,0Zm7,4.06a.43.43,0,0,0,0,.82l4.88,2.84a1.55,1.55,0,0,0,1.42,0l3.77-2.17a.44.44,0,0,0,0-.83l-4.88-2.83a1.57,1.57,0,0,0-1.43,0Zm7,4.07a.43.43,0,0,0,0,.82l4.88,2.84a1.61,1.61,0,0,0,1.42,0l3.77-2.18c.39-.23.4-.59,0-.82l-4.89-2.84a1.55,1.55,0,0,0-1.42,0Zm7,4.05a.44.44,0,0,0,0,.83l4.88,2.84a1.61,1.61,0,0,0,1.42,0l3.77-2.17a.44.44,0,0,0,0-.83l-4.89-2.84a1.57,1.57,0,0,0-1.43,0Zm7.1,4.13a.43.43,0,0,0,0,.82l10.68,6.21a1.61,1.61,0,0,0,1.42,0l3.76-2.18c.4-.23.4-.6,0-.82l-10.68-6.21a1.55,1.55,0,0,0-1.42,0Zm-71.08-34.63c-.4.23-.4.6,0,.82l4.88,2.84a1.57,1.57,0,0,0,1.43,0l3.76-2.17a.44.44,0,0,0,0-.83l-4.88-2.83a1.55,1.55,0,0,0-1.42,0Zm7,4.06a.44.44,0,0,0,0,.83l4.88,2.84a1.6,1.6,0,0,0,1.43,0l3.76-2.17c.39-.23.4-.59,0-.82l-4.89-2.84a1.55,1.55,0,0,0-1.42,0Zm7,4.06a.44.44,0,0,0,0,.83l4.88,2.84a1.63,1.63,0,0,0,1.43,0l3.76-2.18a.44.44,0,0,0,0-.82l-4.89-2.84a1.55,1.55,0,0,0-1.42,0Zm7,4.07c-.4.23-.4.6,0,.82l4.88,2.84a1.57,1.57,0,0,0,1.43,0l3.77-2.17a.44.44,0,0,0,0-.83l-4.89-2.84a1.61,1.61,0,0,0-1.42,0Zm7,4.06a.44.44,0,0,0,0,.83l4.88,2.83a1.57,1.57,0,0,0,1.43,0l3.76-2.17c.39-.23.4-.6,0-.83l-4.89-2.83a1.55,1.55,0,0,0-1.42,0Zm7,4.07a.44.44,0,0,0,0,.83l4.88,2.84a1.6,1.6,0,0,0,1.43,0l3.76-2.17a.44.44,0,0,0,0-.82l-4.89-2.84a1.55,1.55,0,0,0-1.42,0Zm7,4.06c-.4.23-.41.6,0,.83l4.88,2.84a1.58,1.58,0,0,0,1.42,0l3.77-2.17a.43.43,0,0,0,0-.82l-4.88-2.84a1.55,1.55,0,0,0-1.42,0Zm7,4.06c-.4.23-.4.61,0,.83l4.88,2.84a1.57,1.57,0,0,0,1.43,0l3.76-2.17c.39-.23.4-.6,0-.83l-4.89-2.83a1.58,1.58,0,0,0-1.42,0Zm7,4.07c-.4.23-.4.6,0,.82l4.88,2.84a1.57,1.57,0,0,0,1.43,0l3.76-2.17a.44.44,0,0,0,0-.83l-4.88-2.84a1.61,1.61,0,0,0-1.42,0Zm7,4.06c-.39.23-.4.6,0,.83l4.88,2.83a1.57,1.57,0,0,0,1.43,0l3.76-2.17c.39-.23.4-.59,0-.82l-4.89-2.84a1.55,1.55,0,0,0-1.42,0Zm7,4.06a.44.44,0,0,0,0,.83l6.07,3.53a1.58,1.58,0,0,0,1.42,0l3.77-2.17a.43.43,0,0,0,0-.82l-6.07-3.53a1.55,1.55,0,0,0-1.42,0Zm-96.61-49.42a.43.43,0,0,0,0,.82l5.27,3.06a1.57,1.57,0,0,0,1.43,0l3.76-2.18c.4-.22.4-.59,0-.82L163,162.47a1.61,1.61,0,0,0-1.42,0Zm7.6,4.37c-.39.23-.4.6,0,.83l6.44,3.74a1.55,1.55,0,0,0,1.42,0l3.76-2.17a.44.44,0,0,0,0-.83l-6.44-3.74a1.57,1.57,0,0,0-1.43,0Zm8.62,5c-.39.23-.4.6,0,.82l4.89,2.84a1.55,1.55,0,0,0,1.42,0l3.76-2.17c.39-.23.4-.6,0-.83l-4.88-2.83a1.57,1.57,0,0,0-1.43,0Zm7,4.06a.44.44,0,0,0,0,.83l4.89,2.83a1.55,1.55,0,0,0,1.42,0l3.76-2.17c.39-.23.4-.6,0-.82l-4.88-2.84a1.57,1.57,0,0,0-1.43,0Zm7,4.07a.44.44,0,0,0,0,.82l4.88,2.84a1.63,1.63,0,0,0,1.43,0l3.76-2.17a.44.44,0,0,0,0-.83L193.21,180a1.63,1.63,0,0,0-1.43,0Zm7,4.06a.43.43,0,0,0,0,.82l4.88,2.84a1.6,1.6,0,0,0,1.43,0l3.76-2.17c.39-.23.4-.6,0-.83L200.2,184a1.57,1.57,0,0,0-1.43,0Zm7,4.06c-.39.23-.39.6,0,.82l4.89,2.84a1.55,1.55,0,0,0,1.42,0l3.76-2.17a.44.44,0,0,0,0-.83l-4.88-2.84a1.6,1.6,0,0,0-1.43,0Zm7,4.06c-.39.23-.4.6,0,.83l4.88,2.83a1.57,1.57,0,0,0,1.43,0l3.76-2.17c.39-.23.4-.6,0-.83l-4.88-2.83a1.57,1.57,0,0,0-1.43,0Zm7,4.07a.44.44,0,0,0,0,.83l4.89,2.84a1.58,1.58,0,0,0,1.42,0l3.76-2.18a.43.43,0,0,0,0-.82l-4.88-2.84a1.57,1.57,0,0,0-1.43,0Zm7,4.07a.43.43,0,0,0,0,.82l4.88,2.84a1.63,1.63,0,0,0,1.43,0l3.76-2.17a.44.44,0,0,0,0-.83l-4.88-2.84a1.55,1.55,0,0,0-1.42,0Zm7,4.06c-.39.23-.4.6,0,.82l4.89,2.84a1.55,1.55,0,0,0,1.42,0L240,208a.44.44,0,0,0,0-.83l-4.88-2.83a1.57,1.57,0,0,0-1.43,0Zm7,4.06a.44.44,0,0,0,0,.83l4.89,2.83a1.55,1.55,0,0,0,1.42,0l3.76-2.17a.44.44,0,0,0,0-.83l-4.88-2.83a1.57,1.57,0,0,0-1.43,0Zm7.1,4.12c-.39.23-.4.6,0,.83l10.68,6.2a1.55,1.55,0,0,0,1.42,0l3.76-2.17a.44.44,0,0,0,0-.83l-10.67-6.2a1.57,1.57,0,0,0-1.43,0ZM140.44,168c-.39.23-.4.6,0,.83l3.7,2.14a1.57,1.57,0,0,0,1.43,0l9.53-5.51c.4-.22.41-.59,0-.82l-3.69-2.15a1.57,1.57,0,0,0-1.43,0Zm11.44,0a.43.43,0,0,0,0,.82l5.57,3.24a1.61,1.61,0,0,0,1.42,0l3.76-2.17a.44.44,0,0,0,0-.83l-5.57-3.24a1.6,1.6,0,0,0-1.43,0Zm7.71,4.48a.43.43,0,0,0,0,.82l2.76,1.61a1.61,1.61,0,0,0,1.42,0l3.77-2.17c.39-.23.4-.6,0-.83l-2.76-1.61a1.63,1.63,0,0,0-1.43,0Zm5.11,3c-.39.23-.4.6,0,.83l2.89,1.68a1.63,1.63,0,0,0,1.43,0l3.76-2.17a.44.44,0,0,0,0-.83l-2.89-1.68a1.57,1.57,0,0,0-1.43,0Zm5.09,3a.43.43,0,0,0,0,.82l8,4.65a1.57,1.57,0,0,0,1.43,0l3.76-2.17a.44.44,0,0,0,0-.83l-8-4.65a1.61,1.61,0,0,0-1.42,0Zm10.12,5.87c-.39.23-.4.6,0,.83l4.88,2.83a1.55,1.55,0,0,0,1.42,0l3.76-2.17c.4-.23.4-.6,0-.82L185.1,182a1.57,1.57,0,0,0-1.43,0Zm7,4.06a.44.44,0,0,0,0,.83l4.88,2.84a1.61,1.61,0,0,0,1.42,0l3.76-2.18a.43.43,0,0,0,0-.82l-4.88-2.84a1.57,1.57,0,0,0-1.43,0Zm7,4.07a.44.44,0,0,0,0,.82l4.89,2.84a1.55,1.55,0,0,0,1.42,0l3.77-2.17a.44.44,0,0,0,0-.83l-4.88-2.84a1.6,1.6,0,0,0-1.43,0Zm7,4.06c-.39.23-.4.6,0,.82l4.89,2.84a1.55,1.55,0,0,0,1.42,0l3.76-2.17a.44.44,0,0,0,0-.83l-4.88-2.83a1.57,1.57,0,0,0-1.43,0Zm7,4.07a.44.44,0,0,0,0,.83l4.88,2.84a1.61,1.61,0,0,0,1.42,0l3.76-2.18c.4-.23.4-.6,0-.82l-4.88-2.84a1.57,1.57,0,0,0-1.43,0Zm7,4.06a.44.44,0,0,0,0,.83l4.88,2.83a1.55,1.55,0,0,0,1.42,0l3.77-2.17c.39-.23.4-.6,0-.82l-4.89-2.84a1.55,1.55,0,0,0-1.42,0Zm7,4.07c-.39.22-.39.59,0,.82l4.88,2.84a1.55,1.55,0,0,0,1.42,0l3.76-2.17a.44.44,0,0,0,0-.83l-4.88-2.84a1.63,1.63,0,0,0-1.43,0Zm7,4.06a.43.43,0,0,0,0,.82l4.88,2.84a1.57,1.57,0,0,0,1.43,0l3.76-2.17a.44.44,0,0,0,0-.83L234,210.46a1.58,1.58,0,0,0-1.42,0Zm7,4.06c-.39.23-.4.6,0,.83l4.88,2.83a1.55,1.55,0,0,0,1.42,0l3.76-2.17c.4-.23.4-.6,0-.82L241,214.53a1.57,1.57,0,0,0-1.43,0Zm7,4.06a.44.44,0,0,0,0,.83l4.88,2.84a1.61,1.61,0,0,0,1.42,0l3.76-2.18c.4-.23.4-.6,0-.82L248,218.59a1.57,1.57,0,0,0-1.43,0Zm-94.44-48.19a.43.43,0,0,0,0,.82l4.88,2.84a1.6,1.6,0,0,0,1.43,0l3.76-2.18a.43.43,0,0,0,0-.82l-4.88-2.84a1.61,1.61,0,0,0-1.42,0Zm7,4.06a.43.43,0,0,0,0,.82l4.88,2.84a1.57,1.57,0,0,0,1.43,0l3.76-2.17a.44.44,0,0,0,0-.83l-4.88-2.83a1.58,1.58,0,0,0-1.42,0Zm7.07,4.1c-.4.23-.41.6,0,.83l4.88,2.83a1.55,1.55,0,0,0,1.42,0l3.77-2.17c.39-.23.4-.6,0-.83l-4.88-2.83a1.55,1.55,0,0,0-1.42,0Zm7,4.06c-.39.23-.4.6,0,.83l4.88,2.84a1.58,1.58,0,0,0,1.42,0l3.77-2.17a.43.43,0,0,0,0-.82l-4.88-2.84a1.57,1.57,0,0,0-1.43,0Zm7,4.06c-.4.23-.41.6,0,.83l32.86,19.1a1.57,1.57,0,0,0,1.43,0l3.76-2.17a.43.43,0,0,0,0-.82l-32.86-19.1a1.58,1.58,0,0,0-1.42,0Zm35,20.32c-.39.23-.4.6,0,.83l4.88,2.84a1.57,1.57,0,0,0,1.43,0l3.77-2.18a.43.43,0,0,0,0-.82L216.57,207a1.61,1.61,0,0,0-1.42,0Zm7,4.07c-.4.23-.41.6,0,.82l4.88,2.84a1.55,1.55,0,0,0,1.42,0l3.77-2.17c.39-.23.4-.6,0-.83l-4.88-2.83a1.55,1.55,0,0,0-1.42,0Zm7,4.06c-.39.23-.4.6,0,.83l4.88,2.83a1.55,1.55,0,0,0,1.42,0l3.77-2.17a.43.43,0,0,0,0-.82l-4.88-2.84a1.55,1.55,0,0,0-1.42,0Zm7,4.06a.44.44,0,0,0,0,.83l4.88,2.84a1.63,1.63,0,0,0,1.43,0l3.76-2.18a.43.43,0,0,0,0-.82l-4.88-2.84a1.61,1.61,0,0,0-1.42,0Zm7,4.06c-.39.23-.4.6,0,.83l3.78,2.2a1.57,1.57,0,0,0,1.43,0l3.76-2.17a.44.44,0,0,0,0-.83l-3.79-2.2a1.57,1.57,0,0,0-1.43,0Z"/><path class="cls-3" d="M220.82,139.33a4,4,0,0,1,3.59,0l69.49,40.38a1.1,1.1,0,0,1,0,2.08L279.06,190a3.92,3.92,0,0,1-3.59,0L206,149.58c-1-.57-1-1.5,0-2.08Z"/><path class="cls-4" d="M221.77,138.67a3.85,3.85,0,0,1,3.47,0l67.95,37.71v2.37a1.25,1.25,0,0,1-.73,1l-14.34,7.9a3.79,3.79,0,0,1-3.47,0l-67.24-39.07a1.19,1.19,0,0,1-.71-1c0-.36,0-2.5,0-2.5Z"/><path class="cls-5" d="M221.77,136.44a3.82,3.82,0,0,1,3.47,0l67.24,39.08c.95.55.95,1.45,0,2l-14.34,7.9a3.82,3.82,0,0,1-3.47,0l-67.24-39.08c-1-.55-.95-1.45,0-2Z"/><path class="cls-4" d="M321.82,76.43,190.24.46a2.34,2.34,0,0,0-2.47-.19h0l-2.62,1.55,1.7,1-.29,101.8a7.44,7.44,0,0,0,3.38,5.85L320.73,186l-1.6.95,2.17,1.26,2.67-1.55h0a2.37,2.37,0,0,0,1-2.14l.29-102.22A7.41,7.41,0,0,0,321.82,76.43Z"/><polygon class="cls-4" points="269.63 144.72 269.63 169.03 267.26 170.31 238.91 152.25 238.91 126.32 269.63 144.72"/><polygon class="cls-6" points="267.26 145.12 267.26 170.31 236.54 152.65 236.54 126.71 267.26 145.12"/><path class="cls-5" d="M318.66,78a7.47,7.47,0,0,1,3.39,5.86l-.29,102.22c0,2.15-1.53,3-3.41,1.94l-131.57-76a7.45,7.45,0,0,1-3.39-5.85L183.68,4c0-2.16,1.53-3,3.41-1.94Z"/><path class="cls-7" d="M187.51,95.76a8.67,8.67,0,0,0,4,6.83l74.2,42.84,48.08,27.76c2.18,1.27,4,.25,4-2.26l.22-80.8A8.71,8.71,0,0,0,314,83.29L253.72,48.5l-62-35.8c-2.18-1.26-4-.25-4,2.27Z"/><g class="cls-8"><path class="cls-5" d="M207.16,30.58,299.3,83.86a2.8,2.8,0,0,1,1.39,2.42l.08,65.39a2.8,2.8,0,0,1-4.2,2.43l-92.13-53.51a2.82,2.82,0,0,1-1.4-2.41L203,33A2.79,2.79,0,0,1,207.16,30.58Z"/><g class="cls-9"><polygon class="cls-10" points="294.71 122.44 205.43 70.59 205.43 71.39 294.71 123.24 294.71 122.44"/><polygon class="cls-10" points="294.72 130.85 205.44 79 205.44 79.8 294.73 131.65 294.72 130.85"/><polygon class="cls-10" points="294.73 139.25 205.45 87.4 205.45 88.21 294.74 140.05 294.73 139.25"/><polygon class="cls-10" points="294.67 88.92 205.39 37.07 205.39 37.88 294.67 89.72 294.67 88.92"/><polygon class="cls-10" points="294.75 147.66 205.46 95.81 205.46 96.61 294.75 148.46 294.75 147.66"/><polygon class="cls-10" points="294.68 97.22 205.4 45.38 205.4 46.18 294.69 98.03 294.68 97.22"/><polygon class="cls-10" points="294.69 105.63 205.41 53.78 205.41 54.59 294.69 106.43 294.69 105.63"/><polygon class="cls-10" points="294.7 114.04 205.42 62.19 205.42 62.99 294.7 114.84 294.7 114.04"/><polygon class="cls-10" points="205.39 37.44 205.46 95.81 206.19 96.23 206.12 37.86 205.39 37.44"/><polygon class="cls-10" points="214.26 42.6 214.33 100.98 215.06 101.4 214.99 43.02 214.26 42.6"/><polygon class="cls-10" points="223.13 47.77 223.2 106.15 223.93 106.57 223.86 48.19 223.13 47.77"/><polygon class="cls-10" points="232 52.94 232.07 111.31 232.8 111.73 232.73 53.35 232 52.94"/><polygon class="cls-10" points="240.87 58.1 240.94 116.48 241.67 116.9 241.6 58.52 240.87 58.1"/><polygon class="cls-10" points="249.74 63.27 249.81 121.64 250.53 122.07 250.47 63.69 249.74 63.27"/><polygon class="cls-10" points="258.61 68.44 258.68 126.81 259.4 127.23 259.33 68.86 258.61 68.44"/><polygon class="cls-10" points="267.47 73.6 267.54 131.98 268.27 132.4 268.2 74.02 267.47 73.6"/><polygon class="cls-10" points="276.34 78.77 276.41 137.15 277.14 137.57 277.07 79.19 276.34 78.77"/><polygon class="cls-10" points="285.21 83.94 285.28 142.31 286.01 142.73 285.94 84.35 285.21 83.94"/><polygon class="cls-10" points="294.08 88.57 294.15 148.11 294.88 148.53 294.81 88.99 294.08 88.57"/></g><polygon class="cls-4" points="267.49 116.87 251.26 82.66 234.8 96.64 227.69 85.34 207.43 97.91 206.76 97.21 227.91 83.78 235.1 95.22 251.87 80.94 268.01 114.38 293.23 89.06 294.06 89.55 267.49 116.87"/></g><path class="cls-6" d="M173,45.36l20.41,11.8a2.34,2.34,0,0,0,3.5-2V27.89a2.32,2.32,0,0,0-1.17-2l-20.4-11.8a2.33,2.33,0,0,0-3.5,2V43.34A2.34,2.34,0,0,0,173,45.36Z"/><path class="cls-11" d="M185.7,35.34V26.63a1,1,0,0,1,1.45-.83l6.47,3.74a1,1,0,0,1,.48.83v8.71a1,1,0,0,1-1.45.84l-6.46-3.74A1,1,0,0,1,185.7,35.34Zm-1-9.67a.5.5,0,0,0,.43-.25.51.51,0,0,0-.18-.69L175,19a.5.5,0,1,0-.51.87l9.88,5.76A.58.58,0,0,0,184.67,25.67Zm-.26,2.2-9.88-5.76a.5.5,0,1,1,.51-.87L184.92,27a.51.51,0,0,1,.18.69.49.49,0,0,1-.43.26A.59.59,0,0,1,184.41,27.87Zm0,2.26-9.88-5.76a.5.5,0,1,1,.51-.87l9.88,5.75a.52.52,0,0,1,.18.7.5.5,0,0,1-.43.25A.59.59,0,0,1,184.41,30.13Zm0,2.26-9.88-5.76a.5.5,0,1,1,.51-.87l9.88,5.76a.51.51,0,0,1,.18.69.5.5,0,0,1-.43.25A.48.48,0,0,1,184.41,32.39Zm0,2.26-9.88-5.75a.51.51,0,0,1-.18-.7A.51.51,0,0,1,175,28l9.88,5.76a.51.51,0,0,1,.18.69.5.5,0,0,1-.43.25A.48.48,0,0,1,184.41,34.65Z"/><path class="cls-11" d="M185.7,48.91V40.2a1,1,0,0,1,1.45-.84l6.47,3.74a1,1,0,0,1,.48.84v8.71a1,1,0,0,1-1.45.83l-6.46-3.74A1,1,0,0,1,185.7,48.91Zm-1-9.67a.5.5,0,0,0,.43-.25.51.51,0,0,0-.18-.69L175,32.54a.52.52,0,0,0-.69.19.51.51,0,0,0,.18.69l9.88,5.75A.48.48,0,0,0,184.67,39.24Zm-.26,2.19-9.88-5.75a.5.5,0,1,1,.51-.87l9.88,5.75a.51.51,0,0,1,.18.69.5.5,0,0,1-.43.25A.48.48,0,0,1,184.41,41.43Zm0,2.26-9.88-5.75a.5.5,0,1,1,.51-.87l9.88,5.75a.51.51,0,0,1,.18.69.5.5,0,0,1-.43.25A.48.48,0,0,1,184.41,43.69Zm0,2.27-9.88-5.76a.5.5,0,1,1,.51-.87l9.88,5.75a.51.51,0,0,1,.18.69.5.5,0,0,1-.43.25A.58.58,0,0,1,184.41,46Zm0,2.26-9.88-5.76a.5.5,0,1,1,.51-.87l9.88,5.75a.51.51,0,0,1,.18.69.48.48,0,0,1-.43.25A.58.58,0,0,1,184.41,48.22Z"/><path class="cls-6" d="M172.24,84.08l20.41,11.8a2.33,2.33,0,0,0,3.5-2V66.61a2.35,2.35,0,0,0-1.17-2l-20.4-11.8a2.33,2.33,0,0,0-3.5,2V82.06A2.34,2.34,0,0,0,172.24,84.08Z"/><path class="cls-11" d="M184.92,74.06v-8.7a1,1,0,0,1,1.46-.84l6.46,3.74a1,1,0,0,1,.49.84v8.7a1,1,0,0,1-1.46.84l-6.46-3.74A1,1,0,0,1,184.92,74.06Zm-1-9.66a.5.5,0,0,0,.43-.25.51.51,0,0,0-.18-.69l-9.88-5.76a.5.5,0,1,0-.51.87l9.88,5.76A.48.48,0,0,0,183.89,64.4Zm-.26,2.19-9.88-5.75a.51.51,0,0,1-.18-.69.5.5,0,0,1,.69-.19l9.88,5.76a.51.51,0,0,1,.18.69.5.5,0,0,1-.43.25A.48.48,0,0,1,183.63,66.59Zm0,2.26-9.88-5.75a.51.51,0,0,1-.18-.69.5.5,0,0,1,.69-.19L184.14,68a.51.51,0,0,1,.18.69.5.5,0,0,1-.43.25A.48.48,0,0,1,183.63,68.85Zm0,2.26-9.88-5.75a.51.51,0,0,1-.18-.69.5.5,0,0,1,.69-.19l9.88,5.76a.51.51,0,0,1,.18.69.5.5,0,0,1-.43.25A.48.48,0,0,1,183.63,71.11Zm0,2.26-9.88-5.75a.5.5,0,0,1,.51-.87l9.88,5.75a.51.51,0,0,1,.18.69.5.5,0,0,1-.43.25A.48.48,0,0,1,183.63,73.37Z"/><path class="cls-11" d="M184.92,87.63V78.92a1,1,0,0,1,1.46-.83l6.46,3.74a1,1,0,0,1,.49.83v8.71a1,1,0,0,1-1.46.84l-6.46-3.74A1,1,0,0,1,184.92,87.63Zm-1-9.67a.5.5,0,0,0,.43-.25.51.51,0,0,0-.18-.69l-9.88-5.75a.5.5,0,0,0-.51.87l9.88,5.76A.58.58,0,0,0,183.89,78Zm-.26,2.2-9.88-5.76a.5.5,0,0,1,.51-.87l9.88,5.75a.51.51,0,0,1,.18.69.49.49,0,0,1-.43.26A.59.59,0,0,1,183.63,80.16Zm0,2.26-9.88-5.76a.5.5,0,1,1,.51-.87l9.88,5.75a.52.52,0,0,1,.18.7.5.5,0,0,1-.43.25A.59.59,0,0,1,183.63,82.42Zm0,2.26-9.88-5.76a.5.5,0,0,1,.51-.87l9.88,5.76a.51.51,0,0,1,.18.69.5.5,0,0,1-.43.25A.48.48,0,0,1,183.63,84.68Zm0,2.26-9.88-5.75a.51.51,0,0,1-.18-.69.5.5,0,0,1,.69-.19l9.88,5.76a.51.51,0,0,1,.18.69.5.5,0,0,1-.43.25A.48.48,0,0,1,183.63,86.94Z"/><path class="cls-6" d="M205.69,105.78l25,14.44a2.85,2.85,0,0,0,4.28-2.47V84.39a2.85,2.85,0,0,0-1.42-2.47l-25-14.44A2.85,2.85,0,0,0,204.27,70v33.36A2.85,2.85,0,0,0,205.69,105.78Z"/><path class="cls-11" d="M214.52,83.09c2.76-1.8,7-.17,9.48,3.63s2.25,8.35-.51,10.14-7,.17-9.48-3.64S211.76,84.88,214.52,83.09Zm-2.62,26.28,14.26,8.25s0-10.65-2.16-14.74-7.28-5.75-9.48-3.64C211.79,101.86,211.9,109.37,211.9,109.37Z"/><g class="cls-12"><polygon class="cls-13" points="290.03 96.83 310.78 108.83 310.78 89.95 290.03 77.96 290.03 96.83"/><polygon class="cls-5" points="290.03 96.83 310.78 108.83 299.83 92.03 290.03 96.83"/><path class="cls-5" d="M300.81,93.39l10-3.44L290,78l8.91,14.76A1.6,1.6,0,0,0,300.81,93.39Z"/></g><polygon class="cls-14" points="89.14 113.69 106.76 123.95 106.76 123.95 124.4 113.83 106.66 103.5 106.66 103.5 89.14 113.69"/><polygon class="cls-3" points="111.3 127.05 128.92 137.3 146.55 127.19 128.81 116.86 128.81 116.86 111.3 127.05"/><polygon class="cls-3" points="133.94 139.87 151.56 150.12 169.19 140 151.45 129.68 151.45 129.68 133.94 139.87"/><polygon class="cls-15" points="91.95 113.85 105.5 121.73 119.07 113.95 119.07 27.32 91.95 27.21 91.95 113.85"/><polygon class="cls-16" points="91.95 27.21 105.5 35.1 119.07 27.32 105.42 19.38 91.95 27.21"/><polygon class="cls-17" points="105.5 121.73 105.5 35.1 119.07 27.32 119.07 113.95 105.5 121.73"/><polygon class="cls-15" points="114.84 127.25 128.39 135.14 141.95 127.36 141.95 52.77 114.84 52.67 114.84 127.25"/><polygon class="cls-16" points="114.84 52.67 128.39 60.56 141.95 52.77 128.31 44.83 114.84 52.67"/><polygon class="cls-6" points="128.39 135.14 128.39 60.56 141.95 52.77 141.95 127.36 128.39 135.14"/><polygon class="cls-15" points="137.72 140.66 151.27 148.55 164.84 140.76 164.84 83.09 137.72 82.99 137.72 140.66"/><polygon class="cls-16" points="137.72 82.99 151.27 90.87 164.84 83.09 151.19 75.15 137.72 82.99"/><polygon class="cls-6" points="151.27 148.55 151.27 90.87 164.84 83.09 164.84 140.76 151.27 148.55"/><path class="cls-3" d="M258.7,246.28c0,4.39,6.71,7.95,15,7.95s15-3.56,15-7.95-6.7-7.95-15-7.95S258.7,241.89,258.7,246.28Z"/><path class="cls-3" d="M277.26,237.83c0,4.39,6.71,8,15,8s15-3.57,15-8-6.7-8-15-8S277.26,233.44,277.26,237.83Z"/><path class="cls-3" d="M291.4,251.27c0,4.4,6.71,8,15,8s15-3.56,15-8-6.7-8-15-8S291.4,246.88,291.4,251.27Z"/><path class="cls-4" d="M305.46,233V236c0,4.15-6.19,7.52-13.82,7.52s-13.83-3.37-13.83-7.52V233Z"/><path class="cls-18" d="M298.67,242.49c-.45.15-.9.29-1.38.4v-7.73h1.38Zm-14,0a13.69,13.69,0,0,0,1.37.4v-7.73h-1.37Zm17.65-1.68a8.06,8.06,0,0,0,2.41-2.34v-5.18h-2.41Z"/><path class="cls-5" d="M277.81,233c0,4.15,6.19,7.51,13.83,7.51s13.82-3.36,13.82-7.51-6.19-7.52-13.82-7.52S277.81,228.82,277.81,233Z"/><path class="cls-6" d="M281,232.87c0,3.12,4.77,5.65,10.65,5.65s10.64-2.53,10.64-5.65-4.76-5.65-10.64-5.65S281,229.75,281,232.87Z"/><path class="cls-4" d="M291.64,228c5.63,0,10.22,2.32,10.6,5.25a2.45,2.45,0,0,0,0-.39c0-3.12-4.76-5.65-10.64-5.65S281,229.75,281,232.87a2.45,2.45,0,0,0,0,.39C281.41,230.33,286,228,291.64,228Z"/><path class="cls-4" d="M296.35,230.59l1-.57-.77-.45-1,.57a5.93,5.93,0,0,0-5.42-.23c-1.89,1.09-.63,2.24.32,3.19l-1.89,1.1c-.29-.32-.23-.63.22-.94l-2.2-1.28c-1.5.94-1.15,2.13.35,3.17l-1,.57.77.44,1-.56a5.91,5.91,0,0,0,5.48.23c1.87-1.08.56-2.24-.38-3.2l1.87-1.08c.22.26.17.56-.22.85l2.21,1.28C298.1,232.73,297.88,231.62,296.35,230.59Zm-5.39,4a1.94,1.94,0,0,1-1.64,0l1.71-1C291.32,234.05,291.4,234.37,291,234.63Zm1.35-2.59c-.25-.37-.29-.68.13-.92a1.7,1.7,0,0,1,1.54-.05Z"/><path class="cls-5" d="M296.35,230.23l1-.57-.77-.44-1,.57a5.9,5.9,0,0,0-5.42-.24c-1.89,1.1-.63,2.25.32,3.19l-1.89,1.11c-.29-.32-.23-.64.22-.95l-2.2-1.27c-1.5.93-1.15,2.12.35,3.16l-1,.57.77.45,1-.57a5.89,5.89,0,0,0,5.48.24c1.87-1.08.56-2.24-.38-3.2l1.87-1.08c.22.26.17.55-.22.84l2.21,1.28C298.1,232.37,297.88,231.27,296.35,230.23Zm-5.39,4a1.91,1.91,0,0,1-1.64,0l1.71-1C291.32,233.7,291.4,234,291,234.27Zm1.35-2.58c-.25-.37-.29-.68.13-.93a1.73,1.73,0,0,1,1.54,0Z"/><path class="cls-4" d="M305.46,228.31v3.08c0,4.15-6.19,7.51-13.82,7.51s-13.83-3.36-13.83-7.51v-3.08Z"/><path class="cls-18" d="M298.67,237.84c-.45.14-.9.28-1.38.4v-7.73h1.38Zm-14,0c.44.15.89.28,1.37.4v-7.73h-1.37Zm17.65-1.69a7.83,7.83,0,0,0,2.41-2.34v-5.17h-2.41Z"/><path class="cls-5" d="M277.81,228.31c0,4.16,6.19,7.52,13.83,7.52s13.82-3.36,13.82-7.52-6.19-7.51-13.82-7.51S277.81,224.16,277.81,228.31Z"/><path class="cls-6" d="M281,228.22c0,3.12,4.77,5.65,10.65,5.65s10.64-2.53,10.64-5.65-4.76-5.65-10.64-5.65S281,225.1,281,228.22Z"/><path class="cls-4" d="M291.64,223.35c5.63,0,10.22,2.33,10.6,5.26a2.58,2.58,0,0,0,0-.39c0-3.12-4.76-5.65-10.64-5.65S281,225.1,281,228.22a2.58,2.58,0,0,0,0,.39C281.41,225.68,286,223.35,291.64,223.35Z"/><path class="cls-4" d="M296.35,225.93l1-.57-.77-.44-1,.57a5.9,5.9,0,0,0-5.42-.24c-1.89,1.1-.63,2.25.32,3.19l-1.89,1.11c-.29-.32-.23-.63.22-1l-2.2-1.27c-1.5.94-1.15,2.12.35,3.16l-1,.58.77.44,1-.57a5.89,5.89,0,0,0,5.48.24c1.87-1.08.56-2.24-.38-3.2l1.87-1.08c.22.26.17.56-.22.84l2.21,1.28C298.1,228.07,297.88,227,296.35,225.93ZM291,230a1.87,1.87,0,0,1-1.64,0l1.71-1C291.32,229.4,291.4,229.72,291,230Zm1.35-2.58c-.25-.37-.29-.68.13-.92a1.67,1.67,0,0,1,1.54-.05Z"/><path class="cls-5" d="M296.35,225.58l1-.57-.77-.44-1,.56a5.93,5.93,0,0,0-5.42-.23c-1.89,1.1-.63,2.24.32,3.19l-1.89,1.1c-.29-.31-.23-.63.22-.94l-2.2-1.28c-1.5.94-1.15,2.13.35,3.17l-1,.57.77.45,1-.57a6,6,0,0,0,5.48.24c1.87-1.09.56-2.25-.38-3.21l1.87-1.08c.22.27.17.56-.22.85l2.21,1.28C298.1,227.72,297.88,226.61,296.35,225.58Zm-5.39,4a1.91,1.91,0,0,1-1.64,0l1.71-1C291.32,229,291.4,229.37,291,229.62Zm1.35-2.59c-.25-.36-.29-.67.13-.92a1.73,1.73,0,0,1,1.54-.05Z"/><path class="cls-4" d="M305.46,223.66v3.07c0,4.16-6.19,7.52-13.82,7.52s-13.83-3.36-13.83-7.52v-3.07Z"/><path class="cls-18" d="M298.67,233.18c-.45.15-.9.29-1.38.41v-7.74h1.38Zm-14,0c.44.15.89.29,1.37.41v-7.74h-1.37Zm17.65-1.68a8.06,8.06,0,0,0,2.41-2.34V224h-2.41Z"/><path class="cls-5" d="M277.81,223.66c0,4.15,6.19,7.52,13.83,7.52s13.82-3.37,13.82-7.52-6.19-7.52-13.82-7.52S277.81,219.51,277.81,223.66Z"/><path class="cls-6" d="M281,223.57c0,3.12,4.77,5.65,10.65,5.65s10.64-2.53,10.64-5.65-4.76-5.65-10.64-5.65S281,220.45,281,223.57Z"/><path class="cls-4" d="M291.64,218.7c5.63,0,10.22,2.32,10.6,5.26a2.58,2.58,0,0,0,0-.39c0-3.12-4.76-5.65-10.64-5.65S281,220.45,281,223.57a2.58,2.58,0,0,0,0,.39C281.41,221,286,218.7,291.64,218.7Z"/><path class="cls-4" d="M296.35,221.28l1-.57-.77-.44-1,.56a5.93,5.93,0,0,0-5.42-.23c-1.89,1.1-.63,2.25.32,3.19l-1.89,1.11c-.29-.32-.23-.64.22-1l-2.2-1.27c-1.5.93-1.15,2.12.35,3.16l-1,.57.77.45,1-.57a5.92,5.92,0,0,0,5.48.24c1.87-1.09.56-2.24-.38-3.2l1.87-1.09c.22.27.17.56-.22.85l2.21,1.28C298.1,223.42,297.88,222.31,296.35,221.28Zm-5.39,4a1.91,1.91,0,0,1-1.64,0l1.71-1C291.32,224.75,291.4,225.07,291,225.32Zm1.35-2.59c-.25-.36-.29-.67.13-.92a1.73,1.73,0,0,1,1.54-.05Z"/><path class="cls-5" d="M296.35,220.92l1-.56-.77-.45-1,.57a5.9,5.9,0,0,0-5.42-.23c-1.89,1.09-.63,2.24.32,3.19l-1.89,1.1c-.29-.32-.23-.63.22-.94l-2.2-1.28c-1.5.94-1.15,2.13.35,3.16l-1,.58.77.44,1-.56a5.91,5.91,0,0,0,5.48.23c1.87-1.08.56-2.24-.38-3.2l1.87-1.08c.22.26.17.56-.22.84l2.21,1.28C298.1,223.06,297.88,222,296.35,220.92ZM291,225a1.87,1.87,0,0,1-1.64,0l1.71-1C291.32,224.39,291.4,224.71,291,225Zm1.35-2.58c-.25-.37-.29-.68.13-.92a1.7,1.7,0,0,1,1.54-.05Z"/><path class="cls-4" d="M305.46,219v3.07c0,4.15-6.19,7.52-13.82,7.52s-13.83-3.37-13.83-7.52V219Z"/><path class="cls-18" d="M298.67,228.53c-.45.15-.9.29-1.38.4V221.2h1.38Zm-14,0c.44.15.89.29,1.37.41v-7.74h-1.37Zm17.65-1.68a8.06,8.06,0,0,0,2.41-2.34v-5.18h-2.41Z"/><path class="cls-5" d="M277.81,219c0,4.15,6.19,7.51,13.83,7.51s13.82-3.36,13.82-7.51-6.19-7.52-13.82-7.52S277.81,214.86,277.81,219Z"/><path class="cls-6" d="M281,218.91c0,3.12,4.77,5.65,10.65,5.65s10.64-2.53,10.64-5.65-4.76-5.65-10.64-5.65S281,215.79,281,218.91Z"/><path class="cls-4" d="M291.64,214.05c5.63,0,10.22,2.32,10.6,5.26a2.58,2.58,0,0,0,0-.4c0-3.12-4.76-5.65-10.64-5.65S281,215.79,281,218.91a2.58,2.58,0,0,0,0,.4C281.41,216.37,286,214.05,291.64,214.05Z"/><path class="cls-4" d="M296.35,216.63l1-.57-.77-.45-1,.57a5.93,5.93,0,0,0-5.42-.23c-1.89,1.1-.63,2.24.32,3.19l-1.89,1.1c-.29-.32-.23-.63.22-.94l-2.2-1.28c-1.5.94-1.15,2.13.35,3.17l-1,.57.77.44,1-.56a5.91,5.91,0,0,0,5.48.23c1.87-1.08.56-2.24-.38-3.2l1.87-1.08c.22.26.17.56-.22.85l2.21,1.28C298.1,218.77,297.88,217.66,296.35,216.63Zm-5.39,4a1.94,1.94,0,0,1-1.64,0l1.71-1C291.32,220.09,291.4,220.42,291,220.67Zm1.35-2.59c-.25-.36-.29-.68.13-.92a1.7,1.7,0,0,1,1.54,0Z"/><path class="cls-5" d="M296.35,216.27l1-.57-.77-.44-1,.57a5.9,5.9,0,0,0-5.42-.24c-1.89,1.1-.63,2.25.32,3.19l-1.89,1.11c-.29-.32-.23-.64.22-.95l-2.2-1.27c-1.5.94-1.15,2.12.35,3.16l-1,.58.77.44,1-.57a5.89,5.89,0,0,0,5.48.24c1.87-1.08.56-2.24-.38-3.2l1.87-1.08c.22.26.17.55-.22.84l2.21,1.28C298.1,218.41,297.88,217.31,296.35,216.27Zm-5.39,4a1.91,1.91,0,0,1-1.64,0l1.71-1C291.32,219.74,291.4,220.06,291,220.31Zm1.35-2.58c-.25-.37-.29-.68.13-.93a1.73,1.73,0,0,1,1.54-.05Z"/><path class="cls-4" d="M305.46,214.36v3.07c0,4.15-6.19,7.51-13.82,7.51s-13.83-3.36-13.83-7.51v-3.07Z"/><path class="cls-18" d="M298.67,223.88c-.45.15-.9.28-1.38.4v-7.73h1.38Zm-14,0a13.69,13.69,0,0,0,1.37.4v-7.73h-1.37Zm17.65-1.69a7.92,7.92,0,0,0,2.41-2.33v-5.18h-2.41Z"/><path class="cls-5" d="M277.81,214.36c0,4.15,6.19,7.51,13.83,7.51s13.82-3.36,13.82-7.51-6.19-7.52-13.82-7.52S277.81,210.2,277.81,214.36Z"/><path class="cls-6" d="M281,214.26c0,3.12,4.77,5.65,10.65,5.65s10.64-2.53,10.64-5.65-4.76-5.65-10.64-5.65S281,211.14,281,214.26Z"/><path class="cls-4" d="M291.64,209.39c5.63,0,10.22,2.33,10.6,5.26a2.58,2.58,0,0,0,0-.39c0-3.12-4.76-5.65-10.64-5.65S281,211.14,281,214.26a2.58,2.58,0,0,0,0,.39C281.41,211.72,286,209.39,291.64,209.39Z"/><path class="cls-4" d="M296.35,212l1-.56-.77-.45-1,.57a5.93,5.93,0,0,0-5.42-.24c-1.89,1.1-.63,2.25.32,3.2l-1.89,1.1c-.29-.32-.23-.63.22-1l-2.2-1.27c-1.5.94-1.15,2.12.35,3.16l-1,.58.77.44,1-.56a5.91,5.91,0,0,0,5.48.23c1.87-1.08.56-2.24-.38-3.2l1.87-1.08c.22.26.17.56-.22.84l2.21,1.28C298.1,214.11,297.88,213,296.35,212ZM291,216a1.87,1.87,0,0,1-1.64,0l1.71-1C291.32,215.44,291.4,215.76,291,216Zm1.35-2.58c-.25-.37-.29-.68.13-.92a1.67,1.67,0,0,1,1.54,0Z"/><path class="cls-5" d="M296.35,211.62l1-.57-.77-.44-1,.56a5.93,5.93,0,0,0-5.42-.23c-1.89,1.1-.63,2.24.32,3.19l-1.89,1.1c-.29-.31-.23-.63.22-.94l-2.2-1.27c-1.5.93-1.15,2.12.35,3.16l-1,.57.77.45,1-.57a6,6,0,0,0,5.48.24c1.87-1.09.56-2.24-.38-3.2l1.87-1.09c.22.27.17.56-.22.85l2.21,1.28C298.1,213.76,297.88,212.65,296.35,211.62Zm-5.39,4a1.91,1.91,0,0,1-1.64,0l1.71-1C291.32,215.08,291.4,215.41,291,215.66Zm1.35-2.59c-.25-.36-.29-.67.13-.92a1.73,1.73,0,0,1,1.54-.05Z"/><path class="cls-4" d="M320.21,246.42v3.07c0,4.15-6.19,7.52-13.83,7.52s-13.82-3.37-13.82-7.52v-3.07Z"/><path class="cls-18" d="M313.41,255.94c-.44.15-.89.29-1.37.41v-7.74h1.37Zm-14,0c.44.15.89.29,1.37.41v-7.74h-1.37ZM317,254.29a8.18,8.18,0,0,0,2.41-2.34v-5.17H317Z"/><path class="cls-5" d="M292.56,246.42c0,4.15,6.19,7.52,13.82,7.52s13.83-3.37,13.83-7.52-6.19-7.52-13.83-7.52S292.56,242.27,292.56,246.42Z"/><path class="cls-6" d="M295.74,246.33c0,3.12,4.77,5.65,10.64,5.65S317,249.45,317,246.33s-4.77-5.65-10.65-5.65S295.74,243.21,295.74,246.33Z"/><path class="cls-4" d="M306.38,241.46c5.63,0,10.23,2.32,10.61,5.26a2.58,2.58,0,0,0,0-.39c0-3.12-4.77-5.65-10.65-5.65s-10.64,2.53-10.64,5.65a2.58,2.58,0,0,0,0,.39C296.16,243.78,300.75,241.46,306.38,241.46Z"/><path class="cls-4" d="M311.09,244l1-.57-.77-.44-1,.56a5.93,5.93,0,0,0-5.42-.23c-1.88,1.1-.63,2.25.33,3.19l-1.9,1.11c-.28-.32-.22-.64.23-.95l-2.2-1.27c-1.5.93-1.16,2.12.35,3.16l-1,.57.77.45,1-.57a6,6,0,0,0,5.48.24c1.87-1.09.55-2.24-.38-3.2l1.86-1.09c.23.27.18.56-.22.85l2.22,1.28C312.84,246.18,312.63,245.07,311.09,244Zm-5.38,4a1.91,1.91,0,0,1-1.64,0l1.7-1C306.07,247.5,306.14,247.83,305.71,248.08Zm1.34-2.59c-.25-.36-.28-.67.14-.92a1.71,1.71,0,0,1,1.53,0Z"/><path class="cls-5" d="M311.09,243.68l1-.56-.77-.45-1,.57a5.93,5.93,0,0,0-5.42-.24c-1.88,1.1-.63,2.25.33,3.2l-1.9,1.1c-.28-.32-.22-.63.23-1l-2.2-1.27c-1.5.94-1.16,2.13.35,3.16l-1,.58.77.44,1-.56a5.91,5.91,0,0,0,5.48.23c1.87-1.08.55-2.24-.38-3.2l1.86-1.08c.23.26.18.56-.22.84l2.22,1.28C312.84,245.82,312.63,244.72,311.09,243.68Zm-5.38,4a1.87,1.87,0,0,1-1.64,0l1.7-1C306.07,247.15,306.14,247.47,305.71,247.72Zm1.34-2.58c-.25-.37-.28-.68.14-.92a1.65,1.65,0,0,1,1.53-.05Z"/><path class="cls-4" d="M320.21,241.79v3.07c0,4.15-6.19,7.52-13.83,7.52s-13.82-3.37-13.82-7.52v-3.07Z"/><path class="cls-18" d="M313.41,251.31a13.69,13.69,0,0,1-1.37.4V244h1.37Zm-14,0a13.69,13.69,0,0,0,1.37.4V244h-1.37ZM317,249.65a8,8,0,0,0,2.41-2.33v-5.18H317Z"/><path class="cls-5" d="M292.56,241.79c0,4.15,6.19,7.51,13.82,7.51s13.83-3.36,13.83-7.51-6.19-7.52-13.83-7.52S292.56,237.63,292.56,241.79Z"/><path class="cls-6" d="M295.74,241.69c0,3.12,4.77,5.65,10.64,5.65S317,244.81,317,241.69,312.26,236,306.38,236,295.74,238.57,295.74,241.69Z"/><path class="cls-4" d="M306.38,236.83c5.63,0,10.23,2.32,10.61,5.25a2.58,2.58,0,0,0,0-.39c0-3.12-4.77-5.65-10.65-5.65s-10.64,2.53-10.64,5.65a2.58,2.58,0,0,0,0,.39C296.16,239.15,300.75,236.83,306.38,236.83Z"/><path class="cls-4" d="M311.09,239.4l1-.56-.77-.45-1,.57a5.93,5.93,0,0,0-5.42-.24c-1.88,1.1-.63,2.25.33,3.2l-1.9,1.1c-.28-.32-.22-.63.23-1l-2.2-1.27c-1.5.94-1.16,2.12.35,3.16l-1,.58.77.44,1-.56a5.91,5.91,0,0,0,5.48.23c1.87-1.08.55-2.24-.38-3.2l1.86-1.08c.23.26.18.56-.22.84l2.22,1.28C312.84,241.54,312.63,240.44,311.09,239.4Zm-5.38,4a1.87,1.87,0,0,1-1.64,0l1.7-1C306.07,242.87,306.14,243.19,305.71,243.44Zm1.34-2.58c-.25-.37-.28-.68.14-.92a1.65,1.65,0,0,1,1.53-.05Z"/><path class="cls-5" d="M311.09,239.05l1-.57-.77-.44-1,.56a5.93,5.93,0,0,0-5.42-.23c-1.88,1.1-.63,2.25.33,3.19l-1.9,1.11c-.28-.32-.22-.64.23-.95l-2.2-1.27c-1.5.93-1.16,2.12.35,3.16l-1,.57.77.45,1-.57a6,6,0,0,0,5.48.24c1.87-1.09.55-2.24-.38-3.2l1.86-1.09c.23.27.18.56-.22.85l2.22,1.28C312.84,241.19,312.63,240.08,311.09,239.05Zm-5.38,4a1.91,1.91,0,0,1-1.64,0l1.7-1C306.07,242.51,306.14,242.84,305.71,243.09Zm1.34-2.59c-.25-.36-.28-.67.14-.92a1.71,1.71,0,0,1,1.53-.05Z"/><path class="cls-4" d="M287.51,241.39v3.07c0,4.15-6.19,7.52-13.83,7.52s-13.82-3.37-13.82-7.52v-3.07Z"/><path class="cls-18" d="M280.71,250.91a13.69,13.69,0,0,1-1.37.4v-7.73h1.37Zm-14,0c.44.15.89.29,1.37.41v-7.74h-1.37Zm17.65-1.68a8.18,8.18,0,0,0,2.41-2.34v-5.18h-2.41Z"/><path class="cls-5" d="M259.86,241.39c0,4.15,6.19,7.51,13.82,7.51s13.83-3.36,13.83-7.51-6.19-7.52-13.83-7.52S259.86,237.24,259.86,241.39Z"/><path class="cls-6" d="M263,241.29c0,3.12,4.77,5.65,10.64,5.65s10.65-2.53,10.65-5.65-4.77-5.65-10.65-5.65S263,238.17,263,241.29Z"/><path class="cls-4" d="M273.68,236.43c5.63,0,10.23,2.32,10.61,5.26a2.58,2.58,0,0,0,0-.4c0-3.12-4.77-5.65-10.65-5.65S263,238.17,263,241.29a2.58,2.58,0,0,0,0,.4C263.46,238.75,268.05,236.43,273.68,236.43Z"/><path class="cls-4" d="M278.39,239l1-.57-.77-.45-1,.57a5.93,5.93,0,0,0-5.42-.23c-1.89,1.1-.63,2.24.33,3.19l-1.9,1.1c-.28-.32-.22-.63.23-.94l-2.2-1.28c-1.5.94-1.16,2.13.35,3.17l-1,.57.77.44,1-.56a6,6,0,0,0,5.48.24c1.86-1.09.55-2.25-.38-3.21l1.86-1.08c.23.26.18.56-.22.85l2.22,1.28C280.14,241.15,279.93,240,278.39,239Zm-5.38,4a1.94,1.94,0,0,1-1.64,0l1.7-1C273.37,242.47,273.44,242.8,273,243.05Zm1.34-2.59c-.25-.36-.28-.68.14-.92a1.68,1.68,0,0,1,1.53,0Z"/><path class="cls-5" d="M278.39,238.65l1-.57-.77-.44-1,.57a5.9,5.9,0,0,0-5.42-.24c-1.89,1.1-.63,2.25.33,3.19l-1.9,1.11c-.28-.32-.22-.64.23-1l-2.2-1.27c-1.5.94-1.16,2.12.35,3.16l-1,.58.77.44,1-.57a5.89,5.89,0,0,0,5.48.24c1.86-1.08.55-2.24-.38-3.2l1.86-1.08c.23.26.18.55-.22.84l2.22,1.28C280.14,240.79,279.93,239.69,278.39,238.65Zm-5.38,4a1.91,1.91,0,0,1-1.64,0l1.7-1C273.37,242.12,273.44,242.44,273,242.69Zm1.34-2.58c-.25-.37-.28-.68.14-.93a1.71,1.71,0,0,1,1.53-.05Z"/><path class="cls-4" d="M287.51,236.79v3.07c0,4.16-6.19,7.52-13.83,7.52s-13.82-3.36-13.82-7.52v-3.07Z"/><path class="cls-18" d="M280.71,246.31c-.44.15-.89.29-1.37.41V239h1.37Zm-14,0c.44.15.89.29,1.37.41V239h-1.37Zm17.65-1.68a8.18,8.18,0,0,0,2.41-2.34v-5.17h-2.41Z"/><path class="cls-5" d="M259.86,236.79c0,4.15,6.19,7.52,13.82,7.52s13.83-3.37,13.83-7.52-6.19-7.52-13.83-7.52S259.86,232.64,259.86,236.79Z"/><path class="cls-6" d="M263,236.7c0,3.12,4.77,5.65,10.64,5.65s10.65-2.53,10.65-5.65-4.77-5.65-10.65-5.65S263,233.58,263,236.7Z"/><path class="cls-4" d="M273.68,231.83c5.63,0,10.23,2.32,10.61,5.26a2.58,2.58,0,0,0,0-.39c0-3.12-4.77-5.65-10.65-5.65S263,233.58,263,236.7a2.58,2.58,0,0,0,0,.39C263.46,234.15,268.05,231.83,273.68,231.83Z"/><path class="cls-4" d="M278.39,234.41l1-.57-.77-.44-1,.56a5.93,5.93,0,0,0-5.42-.23c-1.89,1.1-.63,2.25.33,3.19l-1.9,1.11c-.28-.32-.22-.64.23-.95l-2.2-1.27c-1.5.93-1.16,2.12.35,3.16l-1,.57.77.45,1-.57a5.92,5.92,0,0,0,5.48.24c1.86-1.09.55-2.24-.38-3.2l1.86-1.09c.23.27.18.56-.22.85l2.22,1.28C280.14,236.55,279.93,235.45,278.39,234.41Zm-5.38,4a1.91,1.91,0,0,1-1.64,0l1.7-1C273.37,237.88,273.44,238.2,273,238.45Zm1.34-2.59c-.25-.36-.28-.67.14-.92a1.71,1.71,0,0,1,1.53-.05Z"/><path class="cls-5" d="M278.39,234.05l1-.56-.77-.45-1,.57a5.93,5.93,0,0,0-5.42-.23c-1.89,1.09-.63,2.24.33,3.19l-1.9,1.1c-.28-.32-.22-.63.23-.94l-2.2-1.28c-1.5.94-1.16,2.13.35,3.16l-1,.58.77.44,1-.56a5.91,5.91,0,0,0,5.48.23c1.86-1.08.55-2.24-.38-3.2l1.86-1.08c.23.26.18.56-.22.85l2.22,1.27C280.14,236.19,279.93,235.09,278.39,234.05Zm-5.38,4a1.91,1.91,0,0,1-1.64,0l1.7-1C273.37,237.52,273.44,237.84,273,238.1Zm1.34-2.59c-.25-.37-.28-.68.14-.92a1.68,1.68,0,0,1,1.53-.05Z"/><g class="cls-2"><path class="cls-4" d="M352.21,167.87a2.44,2.44,0,0,1-.27-.3l0,0a1.4,1.4,0,0,1-.18-.34v0a1.19,1.19,0,0,1-.06-.37l.29,47.62v0a.57.57,0,0,0,0,.13.61.61,0,0,0,0,.13.29.29,0,0,0,0,.09v0a0,0,0,0,0,0,0,.38.38,0,0,0,.06.13,1,1,0,0,0,.08.14l0,0,0,0,.06.08.14.16.08.06.06.06.09.07.32.21a3.81,3.81,0,0,0,.5.23l.18.06.26.08.14,0,.11,0,.13,0,.31,0,.11,0h.16l.25,0h.7l.2,0h0l.23,0,.24,0,.12,0h.05l.08,0,.28-.09.15-.06.08,0,.08,0a2.74,2.74,0,0,0,.42-.21,1.7,1.7,0,0,0,1-1.4l-.29-47.62a1.7,1.7,0,0,1-1,1.4,3.85,3.85,0,0,1-.5.24l-.08,0a4.51,4.51,0,0,1-.52.17h0a5.59,5.59,0,0,1-.59.11h0a6.26,6.26,0,0,1-.63,0h0c-.2,0-.41,0-.61,0h-.06a5.07,5.07,0,0,1-.54-.09l-.12,0-.4-.11-.17-.06a3.29,3.29,0,0,1-.5-.23,2.67,2.67,0,0,1-.41-.28Z"/><path class="cls-19" d="M352.69,168.21c-1.35-.76-1.37-2-.05-2.79a5.29,5.29,0,0,1,4.82,0c1.34.75,1.36,2,0,2.79A5.33,5.33,0,0,1,352.69,168.21Z"/></g><path class="cls-4" d="M336.31,118.19l5.46-3.14h0l.22-.13.24-.11.39-.19c.12-.06.24-.1.36-.15l.42-.16.15-.06.22-.06.42-.13.39-.09a3.43,3.43,0,0,1,.44-.09l.19,0,.21,0,.48-.06.4,0c.16,0,.33,0,.49,0h.41l.61,0,.37,0c.23,0,.47,0,.71.07l.25,0h0a11.39,11.39,0,0,1,1.14.21l.31.08.9.24.2,0,.21.08a5.34,5.34,0,0,1,.52.18,5,5,0,0,1,.5.18l.53.21.5.22.55.25.5.25.55.29.34.17.36.21c.63.36,1.26.76,1.88,1.18l.48.34c.55.39,1.1.8,1.63,1.23l.21.15c.48.39.95.8,1.42,1.22l.24.24c.38.35.75.72,1.12,1.08l.85.85c.37.39.73.81,1.1,1.22l.64.71.16.2.32.39c.43.53.84,1.06,1.25,1.61l.36.47.22.3c.39.55.77,1.1,1.14,1.66l.24.37.43.68c.14.22.27.46.4.69.28.45.55.92.81,1.38.1.18.21.34.3.52s.22.44.34.66c.23.44.45.88.67,1.33.1.19.21.38.3.58s.18.43.28.64c.2.45.4.9.59,1.35.09.21.19.42.27.63s.14.4.22.59c.19.49.37,1,.54,1.48.08.23.18.46.26.7s.17.56.26.84c0,.13.08.25.11.38.18.6.35,1.19.5,1.79l.09.41c.05.21.1.42.14.62.14.62.26,1.23.37,1.84l.09.54c0,.08,0,.17,0,.25.07.48.11.95.16,1.42,0,.27.07.55.1.82.06.81.1,1.61.1,2.4,0,6.64-2.35,11.31-6.13,13.48l-5.47,3.13Z"/><path class="cls-5" d="M330.17,131.66c0-13.19,9.27-18.6,20.66-12.07s20.63,22.58,20.62,35.77-9.26,18.6-20.65,12.07S330.17,144.85,330.17,131.66Zm38.48,22.53c-.21-11.52-8.38-25.68-18.21-31.57s-17.67-1.31-17.46,10.21,8.37,25.68,18.21,31.57,17.66,1.31,17.46-10.21"/><path class="cls-10" d="M368.65,154.19c.2,11.52-7.63,16.1-17.46,10.21s-18-20.06-18.21-31.57,7.63-16.1,17.46-10.21,18,20,18.21,31.57"/><path class="cls-19" d="M335.05,131.64c.2,11.51,8.37,25.68,18.2,31.57,4.36,2.61,8.32,3.16,11.37,2-3.19,2.53-8,2.48-13.43-.77-9.84-5.89-18-20.06-18.21-31.57-.11-6.42,2.26-10.67,6.09-12.18C336.48,122.71,335,126.47,335.05,131.64Z"/><path class="cls-20" d="M197.3,163.93l12.3,7.17a3.13,3.13,0,0,1,0,5.42l-2.1,1.19a6.45,6.45,0,0,1-6.47,0l-12.3-7.17a3.13,3.13,0,0,1,0-5.42l2.1-1.2A6.47,6.47,0,0,1,197.3,163.93Z"/><path class="cls-21" d="M192.49,166s.51-1.69,3.52-1.14c.5.09,1,2.17,1,2.17l5.49,1.65s-10.42,3.9-10.33,2.23C192.33,168.4,192.49,166,192.49,166Z"/><path class="cls-22" d="M190.83,122.17l1.66,44.28c1,1.35,4.38.21,4.38.21.17-1.3,3.39-42.12,3.39-42.12Z"/><path class="cls-23" d="M212,95.51c.71.32.83-.48.92-1.11a3.44,3.44,0,0,1,.26-.94c.12-.06.3.69.41.48s1.46-2.17,2.52-1c.55.62-1,2.6-1.64,2.9-1.19.57-1.42,0-2.18.93Z"/><path class="cls-24" d="M200.78,97a14.14,14.14,0,0,0,5.39,2.27l6.46-4.66s.87-.36,1.19,1.78c0,0-6.63,7.53-8.09,7.71s-3.59-.87-7.07-2.79C192.78,98.1,197.74,95,200.78,97Z"/><path class="cls-21" d="M197.85,168.19s.51-1.69,3.51-1.14c.5.09,1,2.17,1,2.17l5.5,1.65s-10.42,3.9-10.33,2.23C197.69,170.61,197.85,168.19,197.85,168.19Z"/><path class="cls-25" d="M196.21,125.63l1.66,42.92c1,1.36,4.38.22,4.38.22.17-1.31,3.39-42.12,3.39-42.12Z"/><polygon class="cls-26" points="201.05 91.96 201.7 96.02 197.87 95.75 198.62 92.33 201.05 91.96"/><polygon class="cls-10" points="202.95 95.16 197.49 94.48 196.87 96.68 203.16 96.97 202.95 95.16"/><path class="cls-26" d="M202.38,88.92c.28,1.94-.26,4-2.34,3.91a3.5,3.5,0,0,1-3.34-3.08c-.28-1.94.76-3.69,2.33-3.91S202.1,87,202.38,88.92Z"/><path class="cls-27" d="M198.34,93.15s.72.58,1.7-.32a5.86,5.86,0,0,0,.55-1.86c0-.5-.71-1.12-.55-1.55.32-.83,1.09-.68,1.3.94.09-.76,4.18-2.74,1.63-4.59-3.3-2.4-8.32-.29-6.58,2.8C194.91,89,197.11,91.8,198.34,93.15Z"/><path class="cls-28" d="M204.84,98.77c.66,2.17,1.58,20.26,3,27-2.64,3.38-14.9,4.13-18.39.17a142.16,142.16,0,0,1,4.66-25.73C195.67,95,200.4,93.19,204.84,98.77Z"/><path class="cls-23" d="M218.49,100.07c1,.2,1.34-1.06,1.63-1.68,1-2.11.78-.6.93-.56.4.09,2.18-.77,2.4.2s-1.15,1.85-1.95,2.27c-1.54.83-1.53-.06-2.43,1Z"/><path class="cls-28" d="M203.64,97.25c5,5.38,5.49,6,5.49,6L219.46,99s2,.25,1.27,2.44c0,0-9.57,8.1-11.93,8s-5.45-3.69-8.88-7.56C195.31,96.63,200.42,93.81,203.64,97.25Z"/><path class="cls-3" d="M57.13,143C25.58,143,0,156.87,0,174s25.58,31.06,57.13,31.06,57.13-13.91,57.13-31.06S88.68,143,57.13,143Zm0,49.77c-22.77,0-41.23-8.38-41.23-18.71s18.46-18.71,41.23-18.71S98.36,163.69,98.36,174,79.9,192.73,57.13,192.73Z"/><path class="cls-29" d="M113.1,152s-8.45-21-56-21-56,30.73-56,30.73v10.54c0,16.81,25.06,30.43,56,30.43s56-13.62,56-30.43Zm-56,38.64c-22.31,0-40.4-8.21-40.4-18.33S34.82,154,57.13,154s40.4,8.21,40.4,18.33S79.44,190.67,57.13,190.67Z"/><path class="cls-30" d="M57.13,121.6c-30.91,0-56,13.62-56,30.43s25.06,30.43,56,30.43,56-13.63,56-30.43S88,121.6,57.13,121.6Zm0,48.76c-22.31,0-40.4-8.21-40.4-18.33s18.09-18.33,40.4-18.33,40.4,8.2,40.4,18.33S79.44,170.36,57.13,170.36Z"/><path class="cls-31" d="M90.94,170.41c-7.22,5-19.66,8.31-33.81,8.31l-1.05,0v24.06h1.05c21,0,39.23-6.27,48.82-15.55V166.91S92.54,170.91,90.94,170.41Z"/><path class="cls-32" d="M90.94,162.06c-7.22,5-19.66,8.3-33.81,8.3H56.08v12.1h1.05c21,0,39.23-6.27,48.82-15.55-3.41-1.1-6.81-2.23-10.22-3.35C94.14,163,92.54,162.56,90.94,162.06Z"/><path class="cls-24" d="M56.31,182.21c-19.45.69-40.43-10.31-39.53-21.05-5.22,0-15.62-8.35-15.62-8.35v19.54c0,16.66,24.62,30.18,55.15,30.42Z"/><path class="cls-28" d="M56.31,170.35c-21.36-.19-38.64-7.9-39.53-17.54H1.2c.75,16.29,25.06,29.4,55.11,29.64Z"/><path class="cls-3" d="M106.5,196l1.94,1.11a2.88,2.88,0,0,1,0,5l-11.35,6.62a6,6,0,0,1-6,0l-1.94-1.1a2.89,2.89,0,0,1,0-5l11.35-6.62A6,6,0,0,1,106.5,196Z"/><path class="cls-20" d="M242.55,185.73l1.94,1.11a2.88,2.88,0,0,1,0,5l-11.36,6.62a6,6,0,0,1-6,0l-1.94-1.1a2.9,2.9,0,0,1,0-5l11.36-6.62A6,6,0,0,1,242.55,185.73Z"/><path class="cls-23" d="M230.46,132.17a24,24,0,0,1-2.53-1.42c-.28-.28-1.26-1.47-1.91-1.51-.4,0-.07.32.21.77.64,1-1.7-1-2.25-.16-.36.51,0,2.45,2.67,3a13.27,13.27,0,0,1,2.81,1.34Z"/><path class="cls-32" d="M236.91,127.24a43.56,43.56,0,0,0,2.37,8.8L228,130.46s-2.34-.48-1.32,2.71c0,0,14.38,9.58,19.2,6.46,2.57-1.67-.73-14-4.73-16C239,123,236.05,122.44,236.91,127.24Z"/><polygon class="cls-26" points="233.86 119.64 233.86 123.81 237.17 123.42 235.92 119.17 233.86 119.64"/><polygon class="cls-11" points="233.89 121.84 237.1 121.38 237.87 123.18 233.18 123.88 233.89 121.84"/><path class="cls-21" d="M241.35,188.23s-1.31-.55-4,.26c-1.79.53-5.88,2-5.88,2s9.86,2.69,9.87,1.17C241.38,189.4,241.35,188.23,241.35,188.23Z"/><path class="cls-21" d="M235.69,191.15a25.92,25.92,0,0,0-4,.26,50.38,50.38,0,0,0-5.88,2s9.87,2.7,9.88,1.17C235.72,192.32,235.69,191.15,235.69,191.15Z"/><path class="cls-22" d="M244.4,147.31l-2.28,41.34a6.6,6.6,0,0,1-5.23-.35l-.29-40.23Z"/><path class="cls-25" d="M239.59,148.76,236.37,192c-4.51.51-4.77-.87-4.77-.87.26-2.47-.95-44.24-.95-44.24Z"/><path class="cls-26" d="M231.6,116.8c.19,1.94,1.21,3.86,3.19,3.23a3.5,3.5,0,0,0,2.5-3.79c-.19-1.94-1.62-3.39-3.19-3.23S231.41,114.86,231.6,116.8Z"/><path class="cls-27" d="M236.52,119.93s-.56.73-1.73.1a6.23,6.23,0,0,1-1-1.67c-.1-.49.43-1.27.17-1.64-.51-.73-1.22-.4-1,1.23-.27-.72-4.7-1.67-2.68-4.06,2.63-3.12,8-2.28,7.05,1.14C238.84,115.08,237.39,118.32,236.52,119.93Z"/><path class="cls-31" d="M229.85,125.63s.87,16.49.87,25.43c3.3,3,14.16.43,14.89-1.31s-.34-3.26-.63-5.31c-.91-6.56,0-15.19-1.8-18.47C240.8,121.54,235.2,121.22,229.85,125.63Z"/><polygon class="cls-27" points="233.72 157.7 222.93 151.23 222.93 161.51 233.52 167.69 233.72 157.7"/><path class="cls-33" d="M223.21,155.15s-.54-.35-.54-.28v3.4l.54.22Z"/><path class="cls-23" d="M226.49,155.73c-.91,1.18-1.59,4.78.6,5.19.64.12,1.87-2.36,2-4.32"/><path class="cls-32" d="M228.45,128.58c.91-4.79,4.43-4.86,5,3.07a52,52,0,0,1-.4,11.21c-.43,3.74-3.41,14.65-3.43,14.66-.4.34-3.49-1.11-3.58-2.3a44.17,44.17,0,0,0,2.4-12.86C228.79,136.89,227.75,132.24,228.45,128.58Z"/><path class="cls-27" d="M67.7,137c-.3,1.84-.94,4.82-1.25,6.67a7.24,7.24,0,0,0-.13,2,2.36,2.36,0,0,0,.9,1.7,3.56,3.56,0,0,0,2.48.35l3.83-.39a6.75,6.75,0,0,0,1.94-.38,2.35,2.35,0,0,0,1.39-1.32,3.55,3.55,0,0,0-.31-2.38L75,139.19a19,19,0,0,0-.78-1.85"/><polygon class="cls-21" points="91.79 198.73 91.61 202.77 99.56 206.22 95.7 200.21 94.67 197.86 91.79 198.73"/><polygon class="cls-21" points="97.76 196.1 97.58 200.15 106.23 201.14 101.67 197.59 100.64 195.24 97.76 196.1"/><path class="cls-22" d="M72.42,163.81c-1.38,5.78,1.72,7.07,5.27,8.35a81,81,0,0,0,11.4,2.5l8.16,22.2c1.41,1,2.9.65,4.45-.65l-6.91-25.32-13.66-7.62Z"/><path class="cls-25" d="M68.76,166.61c-1.38,5.79,1.72,7.08,5.27,8.36a81,81,0,0,0,11.4,2.5l5.62,21.76c1.18,1.08,2.79.91,4.65,0L90.29,174,78,166.09Z"/><path class="cls-34" d="M82.31,163.93c-.23-1.55-3.32-1.18-3-7.94.19-4.36-.52-10-3-11.3-2.06-1.09-6.24.83-7.35,1.54-2.37,1.51-1.17,2.4-1.68,5.16s-.33,15-.33,17.84c0,1.07,9.63,3.24,14.79-3.46"/><path class="cls-35" d="M81.67,173.52c-.65-.38-6.12-3.57-7.26-4.22a.15.15,0,0,1,0-.25l13.3-7.73a.17.17,0,0,1,.14,0l7.25,4.22a.14.14,0,0,1,0,.24l-13.3,7.73A.14.14,0,0,1,81.67,173.52Z"/><path class="cls-36" d="M95.06,165.57l-13.24,7.69a.17.17,0,0,1-.17,0l-7.18-4.18a.17.17,0,0,1,0-.3l13.23-7.69a.19.19,0,0,1,.18,0l7.18,4.18A.18.18,0,0,1,95.06,165.57Z"/><path class="cls-26" d="M86.18,162.21c1.2.26,3.42,1.75,3.19,2.18s-1.39,1.49-4.14-1.09S86.18,162.21,86.18,162.21Z"/><path class="cls-37" d="M80.85,162.2l4.36,2c.11-1,1.18-1.54,2.33-1.54l-7.25-4.85-1-3.63s0,2.51,0,3.49A6.37,6.37,0,0,0,80.85,162.2Z"/><path class="cls-26" d="M71.13,145.81c-.06,1,2.73.38,2.36-.37-.19-1-.37-2-.56-3.05a2.34,2.34,0,0,0-.33-1c-.77-1-1.36-.24-1.4.59C71.13,143.28,71.15,144.55,71.13,145.81Z"/><path class="cls-26" d="M74.67,139.74a4.75,4.75,0,0,0,0-3.2,2.88,2.88,0,0,0-2.47-1.86,3,3,0,0,0-2.65,1.92,5.7,5.7,0,0,0-.14,3.42,4.45,4.45,0,0,0,1.3,2.54C72.91,144.42,74.1,141.44,74.67,139.74Z"/><path class="cls-27" d="M72.08,138.4a.89.89,0,0,0,.7.84.91.91,0,0,0,1-.52.86.86,0,0,0,1,.59,1.3,1.3,0,0,0,.89-.89,2.6,2.6,0,0,0,0-1.3,5.34,5.34,0,0,0-.39-1.23,4.19,4.19,0,0,0-.74-1.15c-.76-.81-3-1.33-4.13-.37-2.25-.29-2.78,1.82-2.8,3.66-.16,1,.58,1.79.9,2.77a1,1,0,0,0,1.19.66c.48-.07-.8-1.08-.54-2.35.14-.66.8.81,1,.73a14.08,14.08,0,0,1,.22-1.53C70.88,138.65,71.62,139.18,72.08,138.4Z"/><path class="cls-26" d="M77.81,166.83c1.21.27,3.43,1.76,3.2,2.19s-1.4,1.48-4.14-1.1S77.81,166.83,77.81,166.83Z"/><path class="cls-37" d="M68.47,146.68c-3.43.58-2.94,13.4-1.74,16s10.1,5.85,10.1,5.85c.34-1.17.93-1.79,1.75-1.92l-8.48-6.19s0-5.63.05-7.64C70.19,151.37,71.38,146.18,68.47,146.68Z"/><path class="cls-29" d="M81.55,173l2.37-8a.4.4,0,0,1,.17-.23l13-7.54a.22.22,0,0,1,.32.25l-2.37,8a.39.39,0,0,1-.18.22l-13,7.55A.22.22,0,0,1,81.55,173Z"/><path class="cls-5" d="M81.89,173.16c.5-1.69,2.08-7,2.37-8a.36.36,0,0,1,.17-.23l13-7.54a.22.22,0,0,1,.32.25l-2.37,8a.39.39,0,0,1-.18.22l-13,7.55A.21.21,0,0,1,81.89,173.16Z"/><path class="cls-3" d="M141.73,193.87a4.83,4.83,0,0,1,4.38,0L231,243.19a1.34,1.34,0,0,1,0,2.54L167.44,282a4.83,4.83,0,0,1-4.38,0L78.18,232.62c-1.2-.7-1.2-1.83,0-2.54Z"/><path class="cls-6" d="M141.94,192.87a4.75,4.75,0,0,1,4.31,0l83.45,48.49a1.32,1.32,0,0,1,0,2.5l-62.46,35.6a4.77,4.77,0,0,1-4.32,0L79.47,231a1.32,1.32,0,0,1,0-2.5Z"/><path class="cls-10" d="M142.84,196a4.43,4.43,0,0,1,4,0l77.5,45a1.23,1.23,0,0,1,0,2.32l-58,33.06a4.4,4.4,0,0,1-4,0l-77.5-45a1.23,1.23,0,0,1,0-2.32Z"/><path class="cls-4" d="M131.49,195.58a3.43,3.43,0,0,1,3.09,0l3.24,2c.85.49.84,1.29,0,1.79L93.12,224.83a3.37,3.37,0,0,1-3.09,0l-3.24-2a1,1,0,0,1,0-1.79Z"/><path class="cls-36" d="M157.7,267.3a1,1,0,0,1-.82-.46.94.94,0,0,1,.35-1.28L207.49,237a1,1,0,0,1,1.3.35.92.92,0,0,1-.35,1.27l-50.26,28.6A1,1,0,0,1,157.7,267.3ZM150.64,263a1,1,0,0,1-.82-.47.94.94,0,0,1,.35-1.28l50.26-28.59a1,1,0,0,1,1.29.34.92.92,0,0,1-.34,1.28l-50.26,28.59A.94.94,0,0,1,150.64,263Zm-7.06-4.3a1,1,0,0,1-.82-.46.93.93,0,0,1,.34-1.28l50.27-28.6a1,1,0,0,1,1.29.35.92.92,0,0,1-.35,1.27l-50.26,28.6A1,1,0,0,1,143.58,258.71Zm-7.06-4.29a.94.94,0,0,1-.82-.47.92.92,0,0,1,.34-1.28l50.26-28.59a1,1,0,0,1,1.3.34.94.94,0,0,1-.35,1.28L137,254.29A.9.9,0,0,1,136.52,254.42Zm-7.07-4.3a1,1,0,0,1-.82-.46.94.94,0,0,1,.35-1.28l50.26-28.6a1,1,0,0,1,1.3.35.92.92,0,0,1-.35,1.27L129.93,250A1,1,0,0,1,129.45,250.12Zm-7.06-4.29a1,1,0,0,1-.82-.47.94.94,0,0,1,.35-1.28l50.26-28.59a1,1,0,0,1,1.29.34.92.92,0,0,1-.34,1.28L122.86,245.7A.88.88,0,0,1,122.39,245.83Zm-7.06-4.3a1,1,0,0,1-.82-.46.93.93,0,0,1,.35-1.28l50.26-28.6a1,1,0,0,1,1.29.35.92.92,0,0,1-.35,1.27l-50.26,28.6A1,1,0,0,1,115.33,241.53Zm-7.06-4.29a.94.94,0,0,1-.82-.47.92.92,0,0,1,.34-1.28l50.27-28.59a1,1,0,0,1,1.29.34.94.94,0,0,1-.35,1.28l-50.26,28.59A.9.9,0,0,1,108.27,237.24Zm-7.06-4.3a1,1,0,0,1-.83-.46.94.94,0,0,1,.35-1.28L151,202.61a1,1,0,0,1,1.3.34.92.92,0,0,1-.35,1.27l-50.26,28.6A1,1,0,0,1,101.21,232.94Z"/><path class="cls-3" d="M224.28,309.67,191,290.48a2.44,2.44,0,0,1,0-4.21l48.81-28.17a8.78,8.78,0,0,1,8.81,0l30.07,17.36a4.27,4.27,0,0,1,0,7.39l-46.46,26.82A8,8,0,0,1,224.28,309.67Z"/><path class="cls-4" d="M279.53,274.36l-2,.3L244,255.31l-50,28.85v-.56l-2.83-.09v2.85a3.39,3.39,0,0,0,1.69,2.94l31.55,18.26a8.2,8.2,0,0,0,8.19,0l45.06-25.94a3.71,3.71,0,0,0,1.86-3.22Z"/><path class="cls-6" d="M224.7,304.25l-32.4-18.71a2.24,2.24,0,0,1,0-3.88l47.47-27.41a8.44,8.44,0,0,1,8.42,0l29.33,16.94a4,4,0,0,1,0,7l-45.2,26.1A7.63,7.63,0,0,1,224.7,304.25Z"/><path class="cls-5" d="M273.72,272.48l-26-15a8.51,8.51,0,0,0-8.51,0h0a2.82,2.82,0,0,0,0,4.89l26,15a8.49,8.49,0,0,0,8.5,0h0A2.82,2.82,0,0,0,273.72,272.48Z"/><path class="cls-4" d="M228,271.78l-5.56-3.21a.87.87,0,0,1,0-1.51l5.56-3.21a.87.87,0,0,1,.88,0l5.56,3.21a.87.87,0,0,1,0,1.51l-5.56,3.21A.87.87,0,0,1,228,271.78Z"/><path class="cls-4" d="M237.12,277l-5.56-3.21a.88.88,0,0,1,0-1.52l5.56-3.21a.87.87,0,0,1,.88,0l5.56,3.21a.88.88,0,0,1,0,1.52L238,277A.92.92,0,0,1,237.12,277Z"/><path class="cls-4" d="M246.2,282.27l-5.56-3.21a.88.88,0,0,1,0-1.52l5.56-3.21a.92.92,0,0,1,.88,0l5.56,3.21a.88.88,0,0,1,0,1.52l-5.56,3.21A.92.92,0,0,1,246.2,282.27Z"/><path class="cls-28" d="M255.28,287.51l-5.56-3.21a.87.87,0,0,1,0-1.51l5.56-3.21a.87.87,0,0,1,.88,0l5.56,3.21a.87.87,0,0,1,0,1.51l-5.56,3.21A.87.87,0,0,1,255.28,287.51Z"/><path class="cls-5" d="M218.87,277.08l-5.56-3.21a.88.88,0,0,1,0-1.52l5.56-3.21a.92.92,0,0,1,.88,0l5.55,3.21a.87.87,0,0,1,0,1.52l-5.55,3.21A.87.87,0,0,1,218.87,277.08Z"/><path class="cls-5" d="M228,282.32l-5.56-3.21a.87.87,0,0,1,0-1.51l5.56-3.21a.87.87,0,0,1,.88,0l5.55,3.21a.87.87,0,0,1,0,1.51l-5.55,3.21A.87.87,0,0,1,228,282.32Z"/><path class="cls-5" d="M237,287.56l-5.56-3.21a.87.87,0,0,1,0-1.51l5.56-3.21a.87.87,0,0,1,.88,0l5.56,3.21a.87.87,0,0,1,0,1.51l-5.56,3.21A.87.87,0,0,1,237,287.56Z"/><path class="cls-5" d="M246.11,292.81l-5.56-3.21a.88.88,0,0,1,0-1.52l5.56-3.21a.92.92,0,0,1,.88,0l5.56,3.21a.88.88,0,0,1,0,1.52L247,292.81A.92.92,0,0,1,246.11,292.81Z"/><path class="cls-5" d="M209.7,282.38l-5.56-3.21a.87.87,0,0,1,0-1.52l5.56-3.21a.85.85,0,0,1,.87,0l5.56,3.21a.88.88,0,0,1,0,1.52l-5.56,3.21A.9.9,0,0,1,209.7,282.38Z"/><path class="cls-5" d="M218.78,287.62l-5.56-3.21a.87.87,0,0,1,0-1.52l5.56-3.21a.9.9,0,0,1,.87,0l5.56,3.21a.88.88,0,0,1,0,1.52l-5.56,3.21A.9.9,0,0,1,218.78,287.62Z"/><path class="cls-5" d="M227.86,292.86l-5.56-3.21a.87.87,0,0,1,0-1.51l5.56-3.21a.85.85,0,0,1,.87,0l5.56,3.21a.87.87,0,0,1,0,1.51l-5.56,3.21A.85.85,0,0,1,227.86,292.86Z"/><path class="cls-31" d="M227.13,303l-4.76-2.74a1,1,0,0,1,0-1.71l13.94-8.05a2.13,2.13,0,0,1,2.13,0l4.77,2.75a1,1,0,0,1,0,1.71l-13.94,8A2.1,2.1,0,0,1,227.13,303Z"/><path class="cls-5" d="M200.52,287.67,195,284.46a.87.87,0,0,1,0-1.51l5.56-3.21a.87.87,0,0,1,.88,0L207,283a.87.87,0,0,1,0,1.51l-5.56,3.21A.87.87,0,0,1,200.52,287.67Z"/><path class="cls-5" d="M209.6,292.91,204,289.7a.87.87,0,0,1,0-1.51L209.6,285a.87.87,0,0,1,.88,0l5.56,3.21a.87.87,0,0,1,0,1.51l-5.56,3.21A.87.87,0,0,1,209.6,292.91Z"/><path class="cls-5" d="M218.68,298.16,213.12,295a.88.88,0,0,1,0-1.52l5.56-3.21a.92.92,0,0,1,.88,0l5.56,3.21a.88.88,0,0,1,0,1.52l-5.56,3.21A.92.92,0,0,1,218.68,298.16Z"/><path class="cls-3" d="M114.39,156.55c0,3.82,5.84,6.92,13,6.92s13-3.1,13-6.92-5.83-6.91-13-6.91S114.39,152.73,114.39,156.55Z"/><path class="cls-30" d="M112.75,137.25l2.85,17.4c.27,4.06,5.49,7.22,11.69,7.22s11.41-3.16,11.68-7.22l2.85-17.4Z"/><path class="cls-4" d="M112.75,134v4.5c0,4.8,6.51,8.7,14.54,8.7s14.53-3.9,14.53-8.7V134Z"/><ellipse class="cls-5" cx="127.29" cy="133.99" rx="14.54" ry="8.7"/><ellipse class="cls-10" cx="127.29" cy="133.99" rx="13.44" ry="7.22"/><ellipse class="cls-30" cx="127.29" cy="133.99" rx="13.44" ry="7.22"/><path class="cls-29" d="M127.28,131.69c-6,0-10.65,2.21-12.53,4.76,1.88,2.56,6.51,4.76,12.53,4.76s10.66-2.2,12.54-4.76C137.94,133.9,133.31,131.69,127.28,131.69Z"/><path class="cls-38" d="M121.62,120.16a12.42,12.42,0,0,1,1.08-4.42,4.26,4.26,0,0,1,7.68-.54,12,12,0,0,1,1.74,4.57,58.38,58.38,0,0,1,1.34,12.71,8.19,8.19,0,0,1-.94,4.47,5.92,5.92,0,0,1-5,2.37c-1.37,0-4.48-.23-5.5-1.28s-.7-3.85-.77-5.2A75.64,75.64,0,0,1,121.62,120.16Z"/><path class="cls-38" d="M117.51,124.91a9.59,9.59,0,0,1-.69-6.82c.19-.69.63-1.48,1.35-1.46a1.32,1.32,0,0,1,1.07,1.3,10.32,10.32,0,0,1-.24,1.82,4.14,4.14,0,0,0,2,4,17.27,17.27,0,0,1,2.15,1.08,2.8,2.8,0,0,1,1,2.53C123.5,132.1,118.45,126.75,117.51,124.91Z"/><path class="cls-38" d="M135.37,127a8.72,8.72,0,0,0,2.67-5.14,2.32,2.32,0,0,0-.49-2.07,1.72,1.72,0,0,0-2.25.22,3.89,3.89,0,0,0-1,2.24,12.37,12.37,0,0,1-.43,2.43,2.46,2.46,0,0,1-1.69,1.67c-.9.17-2-.37-2.7.17-1.46,1.06-.07,2.66,1.19,2.69C132.31,129.24,134.25,128,135.37,127Z"/><path class="cls-3" d="M72.32,245.74h0a3.62,3.62,0,0,1,3.59,0l55.61,32.32a3.6,3.6,0,0,1,0,6.24h0a3.6,3.6,0,0,1-3.58,0L72.29,252A3.6,3.6,0,0,1,72.32,245.74Z"/><path class="cls-6" d="M124.79,271.66a3.26,3.26,0,0,1,.48-.11h0a1.83,1.83,0,0,1,.47,0h0a1.26,1.26,0,0,1,.42.16L76.66,242.87h0l-.15-.07-.15,0-.1,0h-.06l-.18,0a1.21,1.21,0,0,0-.19,0h-.22l-.26.05-.11,0-.1,0-.13,0-.41.21a3.23,3.23,0,0,0-.54.37l-.17.15c-.09.08-.17.14-.26.23l-.11.11-.09.11-.11.11-.24.29-.08.11,0,.05-.07.11a2.2,2.2,0,0,0-.17.25,1.58,1.58,0,0,0-.15.24l0,0h0l-.11.21c0,.08-.09.17-.13.25l-.1.22v0h0l-.11.26c0,.1-.07.19-.1.28l0,.13,0,.06,0,.11c0,.11-.06.22-.08.33s0,.13,0,.2,0,.07,0,.1a.36.36,0,0,0,0,.1,3.64,3.64,0,0,0,0,.57,2.07,2.07,0,0,0,.85,1.87l49.58,28.86a2,2,0,0,1-.85-1.87,5,5,0,0,1,0-.66s0-.07,0-.11a3.6,3.6,0,0,1,.15-.63v-.06a6.46,6.46,0,0,1,.26-.69h0a6.24,6.24,0,0,1,.35-.68v0c.12-.21.26-.42.4-.62l0-.06c.14-.18.28-.35.43-.51a.94.94,0,0,1,.1-.1c.11-.12.24-.23.36-.34l.17-.15a5.93,5.93,0,0,1,.54-.38,4.23,4.23,0,0,1,.54-.25Z"/><path class="cls-4" d="M71.72,247.53a.36.36,0,0,1,0-.1s0-.07,0-.1,0-.13,0-.2,0-.22.08-.33l0-.11,0-.06,0-.13c0-.09.06-.18.1-.28l.11-.26h0v0l.1-.22c0-.08.08-.17.13-.25l.11-.21h0l0,0a1.58,1.58,0,0,1,.15-.24,2.2,2.2,0,0,1,.17-.25l.07-.11,0-.05.08-.11.24-.29.11-.11.09-.11.11-.11c.09-.09.17-.15.26-.23l.17-.15a3.23,3.23,0,0,1,.54-.37l.41-.21.13,0,.1,0,.11,0,.26-.05h.22a1.21,1.21,0,0,1,.19,0l.18,0h.06l.1,0,.15,0,.15.07h0l2.64,1.54h-.25l-.27.06-.12,0-.11,0-.14.05a3.61,3.61,0,0,0-.44.22,4.29,4.29,0,0,0-.58.4l-.18.16a3.08,3.08,0,0,0-.27.24,1.42,1.42,0,0,0-.12.13l-.11.11-.11.12-.26.31-.08.12-.05.06-.08.1-.18.27-.16.27v0l-.13.22-.13.27a2.56,2.56,0,0,0-.11.24v0h0c0,.09-.07.19-.11.28l-.11.3s0,.09,0,.14l0,.06,0,.11a2.37,2.37,0,0,0-.09.36c0,.07,0,.14,0,.21a.5.5,0,0,1,0,.12s0,.07,0,.1a4.26,4.26,0,0,0,0,.61,3.09,3.09,0,0,0,.24,1.25L72.53,250a2.07,2.07,0,0,1-.85-1.87A3.64,3.64,0,0,1,71.72,247.53Z"/><path class="cls-10" d="M124.15,271.94a2.09,2.09,0,0,1,2.07-.21c.53.3,7.09,9.78,7.09,9.78s-10.67-2.37-11.19-2.67a2,2,0,0,1-.86-1.88A6.39,6.39,0,0,1,124.15,271.94Z"/><path class="cls-4" d="M130.63,277.67c1.44,2.05,2.68,3.84,2.68,3.84l-4.19-.95C128.21,279.22,129.87,277.36,130.63,277.67Z"/></g></g></g></svg>